<?xml version="1.0" encoding="UTF-8" standalone="no"?>
<svg
   xmlns:dc="http://purl.org/dc/elements/1.1/"
   xmlns:cc="http://creativecommons.org/ns#"
   xmlns:rdf="http://www.w3.org/1999/02/22-rdf-syntax-ns#"
   xmlns:svg="http://www.w3.org/2000/svg"
   xmlns="http://www.w3.org/2000/svg"
   xmlns:sodipodi="http://sodipodi.sourceforge.net/DTD/sodipodi-0.dtd"
   xmlns:inkscape="http://www.inkscape.org/namespaces/inkscape"
   sodipodi:docname="todoka-title.svg"
   inkscape:version="1.0 (4035a4fb49, 2020-05-01)"
   id="svg8"
   version="1.1"
   viewBox="0 0 150 56"
   height="56mm"
   width="150mm">
  <defs
     id="defs2" />
  <sodipodi:namedview
     inkscape:window-maximized="1"
     inkscape:window-y="34"
     inkscape:window-x="0"
     inkscape:window-height="1378"
     inkscape:window-width="2560"
     showgrid="false"
     inkscape:document-rotation="0"
     inkscape:current-layer="text1972"
     inkscape:document-units="mm"
     inkscape:cy="191.42103"
     inkscape:cx="212.50702"
     inkscape:zoom="2.8"
     inkscape:pageshadow="2"
     inkscape:pageopacity="0"
     borderopacity="1.0"
     bordercolor="#666666"
     pagecolor="#0c0c0c"
     id="base" />
  <metadata
     id="metadata5">
    <rdf:RDF>
      <cc:Work
         rdf:about="">
        <dc:format>image/svg+xml</dc:format>
        <dc:type
           rdf:resource="http://purl.org/dc/dcmitype/StillImage" />
        <dc:title />
      </cc:Work>
    </rdf:RDF>
  </metadata>
  <g
     id="layer1"
     inkscape:groupmode="layer"
     inkscape:label="Layer 1">
    <g
       id="layer1-6"
       inkscape:label="Layer 1"
       transform="matrix(0.25286023,0,0,0.25286023,14.843597,5.7746604)">
      <circle
         style="fill:#191d31;fill-opacity:1;stroke:none;stroke-width:7.16042;stroke-linecap:round;stroke-linejoin:round;stroke-miterlimit:4;stroke-dasharray:none;stroke-opacity:1"
         id="circle852"
         cx="87.877747"
         cy="87.182709"
         r="57.199642" />
      <path
         sodipodi:nodetypes="cc"
         id="path866"
         d="M 42.575109,68.761268 H 97.077033"
         style="fill:none;stroke:#292d49;stroke-width:6.5;stroke-linecap:round;stroke-linejoin:miter;stroke-miterlimit:4;stroke-dasharray:none;stroke-opacity:1" />
      <path
         sodipodi:nodetypes="cc"
         id="path854"
         d="M 75.736195,60.954222 V 133.96191"
         style="fill:#191d31;fill-opacity:1;stroke:#292d49;stroke-width:6.63993;stroke-linecap:round;stroke-linejoin:miter;stroke-miterlimit:4;stroke-dasharray:none;stroke-opacity:1" />
      <rect
         transform="rotate(-2.3315528)"
         ry="0"
         y="117.67471"
         x="70.588669"
         height="4.4707584"
         width="5.715107"
         id="rect910"
         style="fill:#292d49;fill-opacity:1;stroke:none;stroke-width:7.72666;stroke-linecap:round;stroke-linejoin:round;stroke-miterlimit:4;stroke-dasharray:none;stroke-opacity:1" />
      <path
         sodipodi:nodetypes="cc"
         style="fill:none;stroke:#292d49;stroke-width:6.05;stroke-linecap:round;stroke-linejoin:round;stroke-miterlimit:4;stroke-dasharray:none;stroke-opacity:1"
         d="M 113.94181,127.8813 76.765252,94.061879"
         id="path860" />
      <path
         sodipodi:nodetypes="ccc"
         id="path833"
         d="M 45.472376,63.998768 H 81.027862 V 135.024"
         style="fill:none;stroke:#5b48e9;stroke-width:6.05;stroke-linecap:round;stroke-linejoin:round;stroke-miterlimit:4;stroke-dasharray:none;stroke-opacity:1" />
      <rect
         transform="rotate(16.912683)"
         y="31.893383"
         x="111.4641"
         height="6.0277061"
         width="5.6389503"
         id="rect932"
         style="fill:#292d49;fill-opacity:1;stroke:none;stroke-width:3.42534;stroke-linecap:round;stroke-linejoin:round;stroke-miterlimit:4;stroke-dasharray:none;stroke-opacity:1" />
      <path
         sodipodi:nodetypes="cc"
         id="path842"
         d="M 82.007047,90.883362 123.31095,54.316336"
         style="fill:none;stroke:#5b48e9;stroke-width:6.05;stroke-linecap:round;stroke-linejoin:round;stroke-miterlimit:4;stroke-dasharray:none;stroke-opacity:1" />
      <path
         sodipodi:nodetypes="cc"
         id="path844"
         d="M 118.79348,124.33009 80.998588,89.828543"
         style="fill:none;stroke:#5b48e9;stroke-width:6.05;stroke-linecap:round;stroke-linejoin:round;stroke-miterlimit:4;stroke-dasharray:none;stroke-opacity:1" />
      <path
         sodipodi:nodetypes="cc"
         id="path848"
         d="M 81.027862,63.998768 H 99.722867"
         style="fill:none;stroke:#5b48e9;stroke-width:6.05;stroke-linecap:round;stroke-linejoin:miter;stroke-miterlimit:4;stroke-dasharray:none;stroke-opacity:1" />
      <path
         sodipodi:nodetypes="cccc"
         transform="scale(0.26458333)"
         d="m 191.37305,182.76172 c -39.97945,38.34902 -62.58197,91.34946 -62.58203,146.74805 -4e-5,112.30475 91.04095,203.34574 203.3457,203.3457 55.39888,-5.7e-4 108.39937,-22.60381 146.74805,-62.58399"
         style="fill:none;fill-opacity:1;stroke:#313658;stroke-width:25.4554;stroke-linecap:round;stroke-linejoin:round;stroke-miterlimit:4;stroke-dasharray:none;stroke-opacity:1"
         id="circle872" />
      <circle
         r="48.329189"
         cy="87.182709"
         cx="87.877747"
         id="path850"
         style="fill:none;fill-opacity:1;stroke:#5b48e9;stroke-width:6.04999;stroke-linecap:round;stroke-linejoin:round;stroke-miterlimit:4;stroke-dasharray:none;stroke-opacity:1" />
      <rect
         y="115.69328"
         x="75.736198"
         height="0.76757044"
         width="0.7889874"
         id="rect912"
         style="fill:#292d49;fill-opacity:1;stroke:none;stroke-width:6.49999;stroke-linecap:round;stroke-linejoin:round;stroke-miterlimit:4;stroke-dasharray:none;stroke-opacity:1" />
      <path
         sodipodi:nodetypes="ccccc"
         id="path942"
         d="m 74.924975,57.803508 5.711907,-2.908505 1.527743,3.359785 -5.620287,1.694855 z"
         style="fill:#292d49;fill-opacity:1;stroke:none;stroke-width:0.264583px;stroke-linecap:butt;stroke-linejoin:miter;stroke-opacity:1" />
      <path
         id="path938"
         d="M 81.027862,69.290438 V 57.865076"
         style="fill:#5b48e9;fill-opacity:1;stroke:#5b48e9;stroke-width:6;stroke-linecap:round;stroke-linejoin:miter;stroke-miterlimit:4;stroke-dasharray:none;stroke-opacity:1" />
    </g>
    <g
       style="font-size:16.547px;line-height:1.25;font-family:Ubuntu;-inkscape-font-specification:'Ubuntu, Normal';fill:#e4e3ef;fill-opacity:1;stroke-width:1.01759"
       id="text1972"
       aria-label="Todoka">
      <path
         id="path851"
         style="fill:#e4e3ef;fill-opacity:1;stroke-width:1.01759"
         d="m 68.249323,18.220091 v 1.389948 H 64.642077 V 29.687162 H 63.037018 V 19.610039 h -3.607246 v -1.389948 z" />
      <path
         id="path853"
         style="fill:#e4e3ef;fill-opacity:1;stroke-width:1.01759"
         d="m 76.522796,25.384942 q 0,1.025914 -0.297846,1.853264 -0.297846,0.82735 -0.843897,1.423042 -0.529504,0.595692 -1.274119,0.926632 -0.744615,0.314393 -1.621606,0.314393 -0.876991,0 -1.621606,-0.314393 -0.744615,-0.33094 -1.290666,-0.926632 -0.529504,-0.595692 -0.82735,-1.423042 -0.297846,-0.82735 -0.297846,-1.853264 0,-1.009367 0.297846,-1.836717 0.297846,-0.843897 0.82735,-1.439589 0.546051,-0.595692 1.290666,-0.910085 0.744615,-0.33094 1.621606,-0.33094 0.876991,0 1.621606,0.33094 0.744615,0.314393 1.274119,0.910085 0.546051,0.595692 0.843897,1.439589 0.297846,0.82735 0.297846,1.836717 z m -1.605059,0 q 0,-1.456136 -0.66188,-2.300033 -0.645333,-0.860444 -1.770529,-0.860444 -1.125196,0 -1.787076,0.860444 -0.645333,0.843897 -0.645333,2.300033 0,1.456136 0.645333,2.31658 0.66188,0.843897 1.787076,0.843897 1.125196,0 1.770529,-0.843897 0.66188,-0.860444 0.66188,-2.31658 z" />
      <path
         id="path855"
         style="fill:#e4e3ef;fill-opacity:1;stroke-width:1.01759"
         d="m 84.250217,22.902892 q -0.281299,-0.231658 -0.810803,-0.446769 -0.529504,-0.215111 -1.15829,-0.215111 -0.66188,0 -1.141743,0.248205 -0.463316,0.231658 -0.761162,0.66188 -0.297846,0.413675 -0.430222,0.99282 -0.132376,0.579145 -0.132376,1.241025 0,1.505777 0.744615,2.333127 0.744615,0.810803 1.98564,0.810803 0.628786,0 1.042461,-0.04964 0.430222,-0.06619 0.66188,-0.132376 z m 0,-5.79145 1.538871,-0.264752 v 12.592267 q -0.529504,0.148923 -1.356854,0.297846 -0.82735,0.148923 -1.902905,0.148923 -0.99282,0 -1.787076,-0.314393 -0.794256,-0.314393 -1.356854,-0.893538 -0.562598,-0.579145 -0.876991,-1.406495 -0.297846,-0.843897 -0.297846,-1.886358 0,-0.99282 0.248205,-1.82017 0.264752,-0.82735 0.761162,-1.423042 0.49641,-0.595692 1.207931,-0.926632 0.728068,-0.33094 1.6547,-0.33094 0.744615,0 1.307213,0.198564 0.579145,0.198564 0.860444,0.380581 z" />
      <path
         id="path857"
         style="fill:#e4e3ef;fill-opacity:1;stroke-width:1.01759"
         d="m 96.031661,25.384942 q 0,1.025914 -0.297846,1.853264 -0.297846,0.82735 -0.843897,1.423042 -0.529504,0.595692 -1.274119,0.926632 -0.744615,0.314393 -1.621606,0.314393 -0.876991,0 -1.621607,-0.314393 -0.744615,-0.33094 -1.290666,-0.926632 -0.529504,-0.595692 -0.82735,-1.423042 -0.297846,-0.82735 -0.297846,-1.853264 0,-1.009367 0.297846,-1.836717 0.297846,-0.843897 0.82735,-1.439589 0.546051,-0.595692 1.290666,-0.910085 0.744616,-0.33094 1.621607,-0.33094 0.876991,0 1.621606,0.33094 0.744615,0.314393 1.274119,0.910085 0.546051,0.595692 0.843897,1.439589 0.297846,0.82735 0.297846,1.836717 z m -1.605059,0 q 0,-1.456136 -0.66188,-2.300033 -0.645333,-0.860444 -1.770529,-0.860444 -1.125196,0 -1.787077,0.860444 -0.645333,0.843897 -0.645333,2.300033 0,1.456136 0.645333,2.31658 0.661881,0.843897 1.787077,0.843897 1.125196,0 1.770529,-0.843897 0.66188,-0.860444 0.66188,-2.31658 z" />
      <path
         id="path859"
         style="fill:#e4e3ef;fill-opacity:1;stroke-width:1.01759"
         d="m 101.31013,24.95472 q 0.49641,0.380581 1.04246,0.943179 0.5626,0.562598 1.0921,1.224478 0.54605,0.645333 1.02591,1.32376 0.47987,0.66188 0.81081,1.241025 h -1.80363 q -0.34748,-0.579145 -0.8108,-1.174837 -0.44677,-0.612239 -0.94318,-1.15829 -0.49641,-0.562598 -1.00937,-1.025914 -0.51295,-0.463316 -0.976269,-0.777709 v 4.13675 H 98.19929 v -12.57572 l 1.538871,-0.264752 v 7.843278 q 0.397129,-0.397128 0.876989,-0.876991 0.47987,-0.479863 0.94318,-0.976273 0.46332,-0.49641 0.87699,-0.943179 0.41368,-0.463316 0.71152,-0.810803 h 1.80363 q -0.38058,0.413675 -0.82735,0.910085 -0.44677,0.49641 -0.92664,1.009367 -0.47986,0.49641 -0.97627,1.009367 -0.47986,0.49641 -0.91008,0.943179 z" />
      <path
         id="path861"
         style="fill:#e4e3ef;fill-opacity:1;stroke-width:1.01759"
         d="m 109.74908,28.578513 q 0.54605,0 0.95973,-0.01655 0.43022,-0.03309 0.71152,-0.09928 v -2.564785 q -0.16547,-0.08273 -0.54605,-0.132376 -0.36404,-0.06619 -0.89354,-0.06619 -0.34749,0 -0.74461,0.04964 -0.38059,0.04964 -0.71153,0.215111 -0.31439,0.148923 -0.5295,0.430222 -0.21511,0.264752 -0.21511,0.711521 0,0.82735 0.5295,1.15829 0.52951,0.314393 1.43959,0.314393 z m -0.13237,-7.710902 q 0.92663,0 1.55541,0.248205 0.64534,0.231658 1.02592,0.678427 0.39713,0.430222 0.5626,1.042461 0.16547,0.595692 0.16547,1.32376 v 5.377775 q -0.19857,0.03309 -0.5626,0.09928 -0.34749,0.04964 -0.79426,0.09928 -0.44677,0.04964 -0.97627,0.08274 -0.51296,0.04964 -1.02591,0.04964 -0.72807,0 -1.34031,-0.148923 -0.61224,-0.148923 -1.05901,-0.463316 -0.44677,-0.33094 -0.69497,-0.860444 -0.24821,-0.529504 -0.24821,-1.274119 0,-0.711521 0.2813,-1.224478 0.29785,-0.512957 0.79426,-0.82735 0.49641,-0.314393 1.15829,-0.463316 0.66188,-0.148923 1.38994,-0.148923 0.23166,0 0.47987,0.03309 0.2482,0.01655 0.46331,0.06619 0.23166,0.03309 0.39713,0.06619 0.16547,0.03309 0.23166,0.04964 v -0.430222 q 0,-0.380581 -0.0827,-0.744615 -0.0827,-0.380581 -0.29784,-0.66188 -0.21511,-0.297846 -0.59569,-0.463316 -0.36404,-0.182017 -0.95973,-0.182017 -0.76116,0 -1.34031,0.115829 -0.56259,0.09928 -0.84389,0.215111 l -0.18202,-1.274119 q 0.29785,-0.132376 0.99282,-0.248205 0.69497,-0.132376 1.50578,-0.132376 z" />
    </g>
    <g
       style="font-size:6.58162px;line-height:1.25;font-family:Ubuntu;-inkscape-font-specification:'Ubuntu, Normal';fill:#b6b2d2;fill-opacity:1;stroke-width:0.404749"
       id="text1976"
       aria-label="Task manager">
      <path
         id="path864"
         style="fill:#b6b2d2;fill-opacity:1;stroke-width:0.404749"
         d="m 65.583612,33.733417 v 0.552856 h -1.434793 v 4.008206 h -0.638417 v -4.008206 h -1.434793 v -0.552856 z" />
      <path
         id="path867"
         style="fill:#b6b2d2;fill-opacity:1;stroke-width:0.404749"
         d="m 67.07763,37.853511 q 0.217194,0 0.381734,-0.0066 0.171122,-0.01316 0.28301,-0.03949 v -1.020151 q -0.06582,-0.03291 -0.217194,-0.05265 -0.144795,-0.02633 -0.355407,-0.02633 -0.138214,0 -0.296173,0.01975 -0.151377,0.01975 -0.28301,0.08556 -0.12505,0.05923 -0.210611,0.171122 -0.08556,0.105306 -0.08556,0.28301 0,0.329081 0.210612,0.460713 0.210612,0.125051 0.572601,0.125051 z m -0.05265,-3.067035 q 0.368571,0 0.618673,0.09872 0.256683,0.09214 0.40806,0.269847 0.157959,0.171122 0.223775,0.414642 0.06582,0.236938 0.06582,0.526529 v 2.139027 q -0.07898,0.01316 -0.223775,0.03949 -0.138214,0.01974 -0.315918,0.03949 -0.177703,0.01975 -0.388315,0.03291 -0.20403,0.01975 -0.408061,0.01975 -0.289591,0 -0.533111,-0.05923 -0.24352,-0.05924 -0.421223,-0.184286 -0.177704,-0.131632 -0.276429,-0.342244 -0.09872,-0.210612 -0.09872,-0.506785 0,-0.283009 0.111888,-0.48704 0.118469,-0.20403 0.315917,-0.329081 0.197449,-0.12505 0.460714,-0.184285 0.263265,-0.05924 0.552856,-0.05924 0.09214,0 0.190867,0.01316 0.09872,0.0066 0.184285,0.02633 0.09214,0.01316 0.157959,0.02633 0.06582,0.01316 0.09214,0.01974 v -0.171122 q 0,-0.151377 -0.03291,-0.296173 -0.03291,-0.151377 -0.118469,-0.263264 -0.08556,-0.11847 -0.236939,-0.184286 -0.144795,-0.0724 -0.381734,-0.0724 -0.302754,0 -0.533111,0.04607 -0.223775,0.03949 -0.335663,0.08556 l -0.0724,-0.506785 q 0.118469,-0.05265 0.394897,-0.09872 0.276428,-0.05265 0.598927,-0.05265 z" />
      <path
         id="path869"
         style="fill:#b6b2d2;fill-opacity:1;stroke-width:0.404749"
         d="m 70.151242,37.853511 q 0.375153,0 0.552856,-0.09872 0.184286,-0.09873 0.184286,-0.315918 0,-0.223775 -0.177704,-0.355408 -0.177704,-0.131632 -0.585764,-0.296173 -0.197449,-0.07898 -0.381734,-0.157959 -0.177704,-0.08556 -0.309336,-0.197448 -0.131633,-0.111888 -0.210612,-0.269847 -0.07898,-0.157958 -0.07898,-0.388315 0,-0.454132 0.335663,-0.717397 0.335663,-0.269846 0.914845,-0.269846 0.144796,0 0.289592,0.01975 0.144795,0.01316 0.269846,0.03949 0.125051,0.01975 0.217194,0.04607 0.09872,0.02633 0.151377,0.04607 l -0.111888,0.52653 q -0.09872,-0.05265 -0.309336,-0.105306 -0.210612,-0.05924 -0.506785,-0.05924 -0.256683,0 -0.44755,0.105306 -0.190867,0.09872 -0.190867,0.315918 0,0.111887 0.03949,0.197448 0.04607,0.08556 0.131632,0.157959 0.09214,0.06582 0.223775,0.125051 0.131633,0.05924 0.315918,0.125051 0.24352,0.09214 0.434387,0.184285 0.190867,0.08556 0.322499,0.204031 0.138214,0.118469 0.210612,0.289591 0.0724,0.16454 0.0724,0.40806 0,0.473877 -0.355407,0.717397 -0.348826,0.24352 -1.000407,0.24352 -0.454131,0 -0.710815,-0.07898 -0.256683,-0.0724 -0.348825,-0.111887 l 0.111887,-0.52653 q 0.105306,0.03949 0.335663,0.118469 0.230356,0.07898 0.61209,0.07898 z" />
      <path
         id="path871"
         style="fill:#b6b2d2;fill-opacity:1;stroke-width:0.404749"
         d="m 73.527608,36.412136 q 0.197449,0.151377 0.414642,0.375152 0.223775,0.223775 0.434387,0.48704 0.217194,0.256683 0.408061,0.52653 0.190867,0.263265 0.322499,0.493621 H 74.3898 Q 74.251586,38.064123 74.067301,37.827184 73.889597,37.583664 73.692149,37.366471 73.4947,37.142696 73.29067,36.95841 73.08664,36.774125 72.902354,36.649074 v 1.645405 h -0.612091 v -5.002031 l 0.612091,-0.105306 v 3.119688 q 0.157959,-0.157959 0.348826,-0.348826 0.190867,-0.190867 0.375152,-0.388315 0.184286,-0.197449 0.348826,-0.375153 0.164541,-0.184285 0.28301,-0.322499 h 0.717397 q -0.151378,0.16454 -0.329081,0.361989 -0.177704,0.197449 -0.368571,0.401479 -0.190867,0.197448 -0.388316,0.401479 -0.190867,0.197448 -0.361989,0.375152 z" />
      <path
         id="path873"
         style="fill:#b6b2d2;fill-opacity:1;stroke-width:0.404749"
         d="m 77.246212,34.970761 q 0.210612,-0.05265 0.552856,-0.111887 0.348826,-0.05924 0.802958,-0.05924 0.329081,0 0.552856,0.09214 0.223775,0.08556 0.375153,0.256683 0.04607,-0.03291 0.144795,-0.09214 0.09872,-0.05923 0.24352,-0.111887 0.144796,-0.05924 0.3225,-0.09873 0.177703,-0.04607 0.381733,-0.04607 0.394898,0 0.644999,0.118469 0.250102,0.111888 0.388316,0.3225 0.144796,0.210611 0.190867,0.500203 0.05265,0.289591 0.05265,0.631835 v 1.921833 h -0.612091 v -1.7902 q 0,-0.302755 -0.03291,-0.519948 -0.02633,-0.217194 -0.111888,-0.361989 -0.07898,-0.144796 -0.223775,-0.210612 -0.138214,-0.0724 -0.361989,-0.0724 -0.309336,0 -0.513366,0.08556 -0.197449,0.07898 -0.269847,0.144796 0.05265,0.171122 0.07898,0.375152 0.02633,0.20403 0.02633,0.427805 v 1.921833 h -0.61209 v -1.7902 q 0,-0.302755 -0.03291,-0.519948 -0.03291,-0.217194 -0.11847,-0.361989 -0.07898,-0.144796 -0.223775,-0.210612 -0.138214,-0.0724 -0.355407,-0.0724 -0.09214,0 -0.197449,0.0066 -0.105306,0.0066 -0.20403,0.01974 -0.09214,0.0066 -0.171122,0.01974 -0.07898,0.01316 -0.105306,0.01975 v 2.889331 h -0.612091 z" />
      <path
         id="path875"
         style="fill:#b6b2d2;fill-opacity:1;stroke-width:0.404749"
         d="m 84.071341,37.853511 q 0.217193,0 0.381734,-0.0066 0.171122,-0.01316 0.283009,-0.03949 v -1.020151 q -0.06582,-0.03291 -0.217193,-0.05265 -0.144796,-0.02633 -0.355408,-0.02633 -0.138214,0 -0.296172,0.01975 -0.151378,0.01975 -0.28301,0.08556 -0.125051,0.05923 -0.210612,0.171122 -0.08556,0.105306 -0.08556,0.28301 0,0.329081 0.210612,0.460713 0.210612,0.125051 0.572601,0.125051 z m -0.05265,-3.067035 q 0.368571,0 0.618672,0.09872 0.256683,0.09214 0.408061,0.269847 0.157958,0.171122 0.223775,0.414642 0.06582,0.236938 0.06582,0.526529 v 2.139027 q -0.07898,0.01316 -0.223775,0.03949 -0.138214,0.01974 -0.315918,0.03949 -0.177704,0.01975 -0.388316,0.03291 -0.20403,0.01975 -0.40806,0.01975 -0.289591,0 -0.533111,-0.05923 -0.24352,-0.05924 -0.421224,-0.184286 -0.177704,-0.131632 -0.276428,-0.342244 -0.09872,-0.210612 -0.09872,-0.506785 0,-0.283009 0.111887,-0.48704 0.118469,-0.20403 0.315918,-0.329081 0.197449,-0.12505 0.460713,-0.184285 0.263265,-0.05924 0.552856,-0.05924 0.09214,0 0.190867,0.01316 0.09873,0.0066 0.184286,0.02633 0.09214,0.01316 0.157959,0.02633 0.06582,0.01316 0.09214,0.01974 v -0.171122 q 0,-0.151377 -0.03291,-0.296173 -0.03291,-0.151377 -0.118469,-0.263264 -0.08556,-0.11847 -0.236938,-0.184286 -0.144796,-0.0724 -0.381734,-0.0724 -0.302755,0 -0.533111,0.04607 -0.223775,0.03949 -0.335663,0.08556 l -0.0724,-0.506785 q 0.118469,-0.05265 0.394897,-0.09872 0.276428,-0.05265 0.598928,-0.05265 z" />
      <path
         id="path877"
         style="fill:#b6b2d2;fill-opacity:1;stroke-width:0.404749"
         d="m 86.348578,34.970761 q 0.210612,-0.05265 0.559438,-0.111887 0.348825,-0.05924 0.802957,-0.05924 0.408061,0 0.677907,0.118469 0.269847,0.111888 0.427805,0.3225 0.164541,0.20403 0.230357,0.493621 0.06582,0.289591 0.06582,0.638417 v 1.921833 h -0.61209 v -1.7902 q 0,-0.315918 -0.04607,-0.539693 -0.03949,-0.223775 -0.138214,-0.361989 -0.09872,-0.138214 -0.263265,-0.197449 -0.16454,-0.06582 -0.40806,-0.06582 -0.09872,0 -0.20403,0.0066 -0.105306,0.0066 -0.20403,0.01974 -0.09214,0.0066 -0.171123,0.01974 -0.0724,0.01316 -0.105306,0.01975 v 2.889331 h -0.61209 z" />
      <path
         id="path879"
         style="fill:#b6b2d2;fill-opacity:1;stroke-width:0.404749"
         d="m 91.284788,37.853511 q 0.217194,0 0.381734,-0.0066 0.171122,-0.01316 0.28301,-0.03949 v -1.020151 q -0.06582,-0.03291 -0.217193,-0.05265 -0.144796,-0.02633 -0.355408,-0.02633 -0.138214,0 -0.296173,0.01975 -0.151377,0.01975 -0.28301,0.08556 -0.12505,0.05923 -0.210611,0.171122 -0.08556,0.105306 -0.08556,0.28301 0,0.329081 0.210611,0.460713 0.210612,0.125051 0.572601,0.125051 z m -0.05265,-3.067035 q 0.368571,0 0.618673,0.09872 0.256683,0.09214 0.40806,0.269847 0.157959,0.171122 0.223775,0.414642 0.06582,0.236938 0.06582,0.526529 v 2.139027 q -0.07898,0.01316 -0.223775,0.03949 -0.138214,0.01974 -0.315917,0.03949 -0.177704,0.01975 -0.388316,0.03291 -0.20403,0.01975 -0.40806,0.01975 -0.289592,0 -0.533112,-0.05923 -0.24352,-0.05924 -0.421223,-0.184286 -0.177704,-0.131632 -0.276428,-0.342244 -0.09873,-0.210612 -0.09873,-0.506785 0,-0.283009 0.111888,-0.48704 0.118469,-0.20403 0.315918,-0.329081 0.197448,-0.12505 0.460713,-0.184285 0.263265,-0.05924 0.552856,-0.05924 0.09214,0 0.190867,0.01316 0.09872,0.0066 0.184285,0.02633 0.09214,0.01316 0.157959,0.02633 0.06582,0.01316 0.09214,0.01974 v -0.171122 q 0,-0.151377 -0.03291,-0.296173 -0.03291,-0.151377 -0.118469,-0.263264 -0.08556,-0.11847 -0.236939,-0.184286 -0.144795,-0.0724 -0.381734,-0.0724 -0.302754,0 -0.533111,0.04607 -0.223775,0.03949 -0.335662,0.08556 l -0.0724,-0.506785 q 0.118469,-0.05265 0.394897,-0.09872 0.276428,-0.05265 0.598927,-0.05265 z" />
      <path
         id="path881"
         style="fill:#b6b2d2;fill-opacity:1;stroke-width:0.404749"
         d="m 95.707634,37.952235 q -0.07898,0.05265 -0.309337,0.138214 -0.223775,0.07898 -0.526529,0.07898 -0.309336,0 -0.585764,-0.09873 -0.269847,-0.09872 -0.473877,-0.302754 -0.20403,-0.210612 -0.322499,-0.519948 -0.11847,-0.309336 -0.11847,-0.737142 0,-0.375152 0.111888,-0.684488 0.111887,-0.315918 0.322499,-0.539693 0.217194,-0.230357 0.52653,-0.355408 0.309336,-0.131632 0.697652,-0.131632 0.427805,0 0.743723,0.06582 0.322499,0.05924 0.539693,0.111888 v 3.053872 q 0,0.789794 -0.408061,1.145201 -0.40806,0.355408 -1.237344,0.355408 -0.3225,0 -0.612091,-0.05265 -0.28301,-0.05265 -0.493622,-0.125051 l 0.111888,-0.533111 q 0.184285,0.0724 0.44755,0.125051 0.269847,0.05923 0.559438,0.05923 0.546274,0 0.783213,-0.217193 0.24352,-0.217194 0.24352,-0.69107 z m -0.0066,-2.540505 q -0.09214,-0.02633 -0.250102,-0.04607 -0.151377,-0.02633 -0.414642,-0.02633 -0.493621,0 -0.763468,0.322499 -0.263264,0.3225 -0.263264,0.855611 0,0.296173 0.0724,0.506785 0.07898,0.210612 0.204031,0.348826 0.131632,0.138214 0.296173,0.20403 0.171122,0.06582 0.348825,0.06582 0.24352,0 0.447551,-0.06582 0.20403,-0.0724 0.322499,-0.164541 z" />
      <path
         id="path883"
         style="fill:#b6b2d2;fill-opacity:1;stroke-width:0.404749"
         d="m 97.175327,36.58984 q 0,-0.454132 0.131632,-0.789795 0.131633,-0.342244 0.348826,-0.566019 0.217194,-0.223775 0.500204,-0.335663 0.283009,-0.111887 0.579182,-0.111887 0.69107,0 1.059641,0.434387 0.368568,0.427805 0.368568,1.309742 0,0.03949 0,0.105306 0,0.05924 -0.007,0.111888 h -2.343056 q 0.03949,0.533111 0.309336,0.809539 0.269847,0.276428 0.842448,0.276428 0.322499,0 0.539693,-0.05265 0.223775,-0.05924 0.335662,-0.111888 l 0.08556,0.513367 q -0.111887,0.05923 -0.394897,0.125051 -0.276428,0.06582 -0.631835,0.06582 -0.447551,0 -0.776632,-0.131633 -0.322499,-0.138214 -0.533111,-0.375152 -0.210612,-0.236938 -0.315918,-0.559438 -0.09872,-0.329081 -0.09872,-0.717396 z m 2.349639,-0.335663 q 0.0066,-0.414642 -0.210612,-0.677907 -0.210612,-0.269846 -0.585765,-0.269846 -0.210611,0 -0.375152,0.08556 -0.157959,0.07898 -0.269846,0.210612 -0.111888,0.131632 -0.177704,0.302754 -0.05924,0.171122 -0.07898,0.348826 z" />
      <path
         id="path885"
         style="fill:#b6b2d2;fill-opacity:1;stroke-width:0.404749"
         d="m 102.30898,34.799639 q 0.079,0 0.1777,0.01316 0.10531,0.0066 0.20403,0.02633 0.0987,0.01316 0.17771,0.03291 0.0856,0.01316 0.12505,0.02633 l -0.10531,0.533112 q -0.0724,-0.02633 -0.24352,-0.05924 -0.16454,-0.03949 -0.4278,-0.03949 -0.17112,0 -0.34225,0.03949 -0.16454,0.03291 -0.21719,0.04607 v 2.876168 h -0.61209 v -3.277646 q 0.21719,-0.07898 0.53969,-0.144796 0.3225,-0.0724 0.72398,-0.0724 z" />
    </g>
  </g>
</svg>
