<svg xmlns="http://www.w3.org/2000/svg" xmlns:xlink="http://www.w3.org/1999/xlink" viewBox="0 0 64 64" height="241.89" width="241.89" xmlns:v="https://vecta.io/nano"><path d="M33.283 9.106l-.292.002-.37.008c-3.416.1-7.154.935-10.85 2.077l-.354.1c-3.605 1.133-7.16 2.548-9.66 4.207l-.306.208c-2.516 1.75-4.032 3.85-5.05 6.607l-.125.35c-.943 2.71-1.443 6.09-1.496 9.535l-.004.37c-.022 3.494.416 7.14 1.35 10.433l.103.356c.577 1.944 1.323 3.732 2.284 5.358.062.104.198.14.303.078l.052-.03c.1-.063.145-.203.08-.312-.934-1.582-1.663-3.328-2.23-5.237l-.103-.356c-.918-3.238-1.354-6.838-1.333-10.285l.004-.37c.053-3.4.55-6.732 1.467-9.37l.125-.35c.99-2.68 2.425-4.663 4.86-6.358l.307-.208c2.424-1.607 5.947-3.016 9.524-4.14l.354-.1c3.668-1.133 7.364-1.955 10.706-2.055l.37-.008c3.34-.046 6.23.63 9.06 1.783l.342.142c2.694 1.138 5.52 2.802 7.75 4.79l.274.25c2.308 2.135 4 4.654 5.064 7.808l.116.352c1.003 3.12 1.355 6.67 1.142 10.173l-.025.37c-.254 3.512-1.068 6.9-2.41 9.945l-.152.338c-.208.455-.428.9-.66 1.338-.06.11-.02.25.1.314l.05.03c.107.062.24.024.298-.085a26.59 26.59 0 0 0 .683-1.387l.152-.338c1.368-3.104 2.195-6.55 2.452-10.12l.025-.37c.217-3.56-.137-7.17-1.166-10.365l-.116-.352c-1.1-3.233-2.837-5.84-5.204-8.027l-.274-.25c-2.285-2.04-5.156-3.726-7.898-4.884l-.342-.142c-2.7-1.098-5.462-1.776-8.6-1.82l-.185-.002zm12.433 46.302c-1.732 1.077-3.63 1.918-5.67 2.553l-.354.108c-3.13.93-6.548 1.372-9.936 1.217l-.37-.02c-3.364-.196-6.622-.977-9.61-2.166l-.343-.14a30.45 30.45 0 0 1-1.551-.694c-.092-.044-.222-.02-.29.057l-.075.083c-.08.1-.06.207.05.26.582.288 1.07.515 1.677.765l.343.14c3.036 1.208 6.35 2.005 9.774 2.204l.37.02c3.45.157 6.922-.293 10.108-1.24l.354-.108c2.156-.67 4.03-1.498 5.855-2.66a.18.18 0 0 0 .036-.283l-.047-.05c-.08-.085-.222-.104-.32-.043z" fill="#5485cc"/><g fill="red"><path d="M20.833 5.437h23.212"/><path d="M60.187 29.135h20.657" transform="matrix(0 1.123696 -1.123696 0 74.24818 -28.768944)"/></g><g fill="#5485cc"><path d="M9.132 31.245c-.15.018-.283.06-.397.125-.456.263-.746 1-.696 1.896s.116 1.044 1.517 3.47l1.675 2.904.955 1.65.812 1.41.14.24.45.78c.08.136.193.245.244.26.2.064.238.167.353.588.138.503.206.54.312.478.23-.133.304-.033.522.347.172.3.287.416.628.647.447.304 1.576.884 1.916 1 .104.033.2.03.222.018.07-.04.134-.25.187-1.064.07-1.097-.02-1.804-.252-2.2-.212-.352-.256-.46-.024-.595.11-.063.116-.137-.252-.51-.308-.31-.378-.398-.334-.604.01-.052-.024-.202-.103-.338l-4.032-6.984c-1.4-2.426-1.5-2.558-2.25-3.048-.563-.37-1.144-.527-1.59-.472zm.233.345c.324.017.744.165 1.095.382.75.463.766.472 3.6 5.38l2.656 4.6-2.81 1.62-2.675-4.633-2.743-5.052c-.234-1.026-.002-2.078.593-2.267a.81.81 0 0 1 .285-.029zm1.664 2.605c-.16-.002-.326.06-.55.19-.45.26-.555.45-.525.922.034.536.4.873.992.917a.86.86 0 0 0 .514-.132c.65-.376.692-1.29.077-1.7-.197-.13-.348-.198-.507-.2zm-.02.395c.37.058.68.462.522.856-.053.132-.154.29-.246.342s-.28.062-.42.042c-.575-.083-.735-.88-.233-1.17.122-.07.252-.1.375-.07zm2.144 4.302c-.065-.003-.087.01-.116.066-.026.05-.001.146.395.867s.47.795.522.8c.047.005.108-.018.15-.07s.07-.037-.402-.856c-.432-.748-.497-.806-.55-.808zm1.277 2.182c-.06-.023-.103.005-.134.064-.048.1.168.582.296.63.037.014.107.008.136-.01.095-.055.114-.174-.07-.45-.093-.14-.17-.212-.228-.235zm2.23 1.354l.3.28.338.323-1.365.8-1.367.788-.114-.452-.094-.39 1.157-.667zm.244.917l.424.487c.275.312.346.868.292 1.995l-.06.654c-.003.01-.015.05-.055.075-.055.03-.1.01-.138.002-.253-.082-1.16-.582-1.552-.856-.356-.25-.483-.378-.566-.615l-.233-.663.568.503c.31.272 1.12.7 1.275.685.068-.002.112-.027.147-.083.082-.133.127-1.046.046-1.45zm-.323.64c.105.056.14.312.154.538s.01.482-.094.542c-.044.026-.096.02-.123.013-.173-.038-.65-.355-.75-.5-.014-.02-.034-.06-.033-.103.003-.115.192-.25.362-.35s.383-.195.485-.14zm-1.94 1.24z"/><use xlink:href="#B"/><path d="M28.206 7.105q-.444 0-.8-.192-.34-.197-.537-.542-.192-.345-.192-.8 0-.45.18-.8.186-.345.5-.542.323-.197.745-.197.416 0 .723.192.312.186.482.52.17.334.17.76 0 .088-.055.142-.055.05-.142.05h-2.328v-.35h2.372l-.236.17q.005-.318-.115-.57-.12-.252-.345-.394-.22-.142-.526-.142-.312 0-.548.148-.236.148-.367.4-.126.257-.126.592 0 .334.142.592.148.257.4.405.252.148.58.148.197 0 .394-.066.203-.07.323-.175.06-.05.137-.05.077-.006.13.038.07.066.07.142.006.077-.06.13-.18.153-.46.257-.28.1-.537.1zm3.05 0q-.323 0-.64-.1-.318-.1-.515-.33-.06-.066-.05-.148.01-.082.082-.142.077-.055.16-.044.082.01.137.07.13.153.345.236.22.082.482.082.405 0 .586-.137.18-.142.186-.34 0-.197-.186-.323-.186-.13-.614-.203-.553-.088-.8-.307-.257-.22-.257-.52 0-.28.148-.466.148-.186.394-.28.247-.093.542-.093.367 0 .63.126.268.126.433.34.055.07.044.148-.01.077-.088.126-.066.038-.153.027-.082-.016-.142-.082-.137-.16-.318-.23-.18-.077-.416-.077-.3 0-.482.126-.18.12-.18.307 0 .126.066.22.07.093.236.164.17.07.47.12.4.066.646.197.24.126.34.3.104.17.104.373 0 .257-.153.455-.148.192-.416.3-.263.1-.608.1zm2.208-.027q-.1 0-.16-.055-.055-.06-.055-.16v-2.57q0-.1.055-.153.06-.06.16-.06.093 0 .148.06.06.055.06.153v2.57q0 .1-.06.16-.055.055-.148.055zM33.46 3.5q-.12 0-.208-.088-.088-.088-.088-.214 0-.137.088-.214.093-.082.214-.082.115 0 .203.082.093.077.093.214 0 .126-.088.214-.088.088-.214.088zm2.607 3.595q-.433 0-.767-.192-.334-.197-.526-.542-.186-.345-.186-.8 0-.45.197-.794.197-.345.542-.537.345-.197.783-.197.444 0 .783.197.345.192.537.537.197.345.203.794l-.247.13q0 .405-.17.723-.17.312-.47.493-.296.175-.68.175zm.055 1.156q-.433 0-.76-.164-.33-.16-.542-.438-.06-.066-.055-.142.01-.077.082-.126.07-.05.16-.033.088.016.137.082.16.197.405.318.252.12.58.12.307 0 .553-.148.247-.148.4-.416.148-.268.148-.63V5.85l.16-.318.257.05V6.7q0 .444-.197.794-.197.356-.537.56-.34.208-.778.208zm-.01-1.54q.323 0 .57-.142.252-.148.394-.405.142-.257.142-.592 0-.334-.142-.592-.142-.263-.394-.405-.247-.148-.57-.148-.323 0-.575.148-.252.142-.394.405-.142.257-.142.592 0 .334.142.592.142.257.394.405.252.142.575.142zm4.913.357q-.093 0-.153-.06-.06-.06-.06-.148V5.445q0-.34-.13-.56-.126-.22-.35-.33-.22-.1-.5-.1-.268 0-.488.104-.214.104-.34.285-.126.18-.126.4h-.3q.01-.345.186-.614.175-.274.466-.427.3-.16.646-.16.4 0 .696.164.307.16.482.47.18.312.18.76V6.87q0 .088-.06.148-.06.06-.148.06zm-2.356 0q-.1 0-.16-.055-.055-.06-.055-.153V4.295q0-.1.055-.153.06-.06.16-.06.093 0 .148.06.06.055.06.153V6.87q0 .093-.06.153-.055.055-.148.055z"/><use xlink:href="#B" x="17.343" y="46.452"/><path d="M45.55 53.558q-.444 0-.8-.192-.34-.197-.537-.542-.192-.345-.192-.8 0-.45.18-.8.186-.345.5-.542.323-.197.745-.197.416 0 .723.192.312.186.482.52.17.334.17.76 0 .088-.055.142-.055.05-.142.05h-2.328v-.35h2.372l-.236.17q.005-.318-.115-.57-.12-.252-.345-.394-.22-.142-.526-.142-.312 0-.548.148-.236.148-.367.4-.126.257-.126.592 0 .334.142.592.148.257.4.405.252.148.58.148.197 0 .394-.066.203-.07.323-.175.06-.05.137-.05.077-.005.13.038.07.066.07.142.005.077-.06.13-.18.153-.46.257-.28.1-.537.1zm2.92-.028q-.13 0-.197-.142l-1.216-2.58q-.033-.07-.005-.142.027-.07.1-.1.077-.038.148-.01.07.027.1.1l1.167 2.525h-.225l1.15-2.525q.033-.077.1-.1.082-.027.16.005.077.038.104.115.027.07-.005.137l-1.2 2.586q-.066.142-.208.142zm3.253.028q-.444 0-.8-.192-.34-.197-.537-.542-.192-.345-.192-.8 0-.45.18-.8.186-.345.5-.542.323-.197.745-.197.416 0 .723.192.312.186.482.52.17.334.17.76 0 .088-.055.142-.055.05-.142.05H50.5v-.35h2.372l-.236.17q.005-.318-.115-.57-.12-.252-.345-.394-.22-.142-.526-.142-.312 0-.548.148-.236.148-.367.4-.126.257-.126.592 0 .334.142.592.148.257.4.405.252.148.58.148.197 0 .394-.066.203-.07.323-.175.06-.05.137-.05.077-.005.13.038.07.066.07.142.006.077-.06.13-.18.153-.46.257-.28.1-.537.1zm2.652-.028q-.22 0-.394-.12-.17-.12-.268-.334-.093-.214-.093-.493V49.46q0-.093.055-.148.06-.06.153-.06.093 0 .148.06.06.055.06.148v3.123q0 .236.093.383.1.148.247.148h.137q.082 0 .13.06.05.055.05.148 0 .093-.07.153-.066.055-.175.055z"/><use xlink:href="#C"/><path d="M59.03 54.812q-.1 0-.16-.06-.055-.055-.055-.153v-2.586q.005-.427.203-.767.203-.345.542-.542.345-.197.772-.197.438 0 .783.203.345.197.542.542.203.345.203.783 0 .433-.197.778-.192.345-.526.548-.334.197-.756.197-.367 0-.668-.153-.296-.16-.477-.416v1.6q0 .1-.06.153-.055.06-.148.06zm1.304-1.638q.318 0 .57-.148.252-.148.394-.405.148-.263.148-.586 0-.33-.148-.586-.142-.257-.394-.405-.252-.153-.57-.153-.312 0-.564.153-.252.148-.394.405-.142.257-.142.586 0 .323.142.586.142.257.394.405.252.148.564.148zm-57.447.3q-.093 0-.153-.06-.06-.06-.06-.153v-3.85q0-.093.06-.153.06-.06.153-.06h.986q.47 0 .86.16.394.153.68.444.285.285.438.674.16.4.16.86 0 .47-.16.866-.153.4-.438.68-.285.285-.68.444-.4.153-.86.153zM3.1 53.1h.772q.504 0 .887-.225.4-.23.608-.625.22-.4.22-.9 0-.5-.22-.904-.22-.4-.608-.625-.383-.225-.887-.225H3.1zm5.096.4q-.444 0-.8-.192-.34-.197-.537-.542-.192-.345-.192-.8 0-.45.18-.8.186-.345.5-.542.323-.197.745-.197.416 0 .723.192.312.186.482.52.17.334.17.76 0 .088-.055.142-.055.05-.142.05H6.963v-.35h2.372l-.236.17q.005-.318-.115-.57-.12-.252-.345-.394-.22-.142-.526-.142-.312 0-.548.148-.236.148-.367.4-.126.257-.126.592 0 .334.142.592.148.257.4.405.252.148.58.148.197 0 .394-.066.203-.07.323-.175.06-.05.137-.05.077-.005.13.038.07.066.07.142.006.077-.06.13-.18.153-.46.257-.28.1-.537.1zm2.218 1.256q-.1 0-.16-.06-.055-.055-.055-.153v-2.586q.006-.427.203-.767.203-.345.542-.542.345-.197.772-.197.438 0 .783.203.345.197.542.542.203.345.203.783 0 .433-.197.778-.192.345-.526.548-.334.197-.756.197-.367 0-.668-.153-.296-.16-.477-.416v1.6q0 .1-.06.153-.055.06-.148.06zm1.304-1.638q.318 0 .57-.148.252-.148.394-.405.148-.263.148-.586 0-.33-.148-.586-.142-.257-.394-.405-.252-.153-.57-.153-.312 0-.564.153-.252.148-.394.405-.142.257-.142.586 0 .323.142.586.142.257.394.405.252.148.564.148zm3.002.356q-.22 0-.394-.12-.17-.12-.268-.334-.093-.214-.093-.493v-3.123q0-.093.055-.148.06-.06.153-.06.093 0 .148.06.06.055.06.148v3.123q0 .236.093.383.1.148.247.148h.137q.082 0 .13.06.05.055.05.148 0 .093-.07.153-.066.055-.175.055z"/><use xlink:href="#C" x="-39.655" y="-0.048"/><path d="M19.513 54.788q-.044 0-.1-.022-.186-.082-.104-.263l1.77-3.9q.082-.175.263-.1.186.077.104.257l-1.775 3.9q-.055.126-.16.126zm.608-1.397q-.082.038-.153.016-.07-.027-.115-.1l-1.222-2.53q-.038-.082-.01-.153.027-.07.1-.1.082-.038.153-.01.07.022.1.104l1.2 2.53q.044.082.027.153-.016.07-.1.1zm5.18-40.86a.59.59 0 0 0-.442.442c-.016.07-.015.2-.015.263v7.305c0 .073-.002.192.015.263a.59.59 0 0 0 .442.442c.07.016.2.015.263.015h12.522c.073 0 .192.002.263-.015a.59.59 0 0 0 .442-.442c.016-.07.015-.2.015-.263v-6.062l-.04.04a.91.91 0 0 0-.267.644v5.378c0 .073.003.195-.03.26a.27.27 0 0 1-.124.126c-.065.032-.187.03-.26.03h-12.52c-.073 0-.195.003-.26-.03-.055-.027-.1-.07-.126-.126-.032-.065-.03-.187-.03-.26v-7.305c0-.073-.003-.195.03-.26.027-.054.07-.098.126-.124.065-.032.187-.03.26-.03h11.76a.46.46 0 0 0 .323-.134l.173-.173H25.565c-.073 0-.192-.002-.263.015z"/></g><g stroke="#5485cc"><g stroke-width=".27"><path d="M24.997 17.615c.152.17 3.265.773 4.75.345s3.008-.767 4.347-.544l4.56.74" fill="none"/><path d="M31.065 21.11l-1.34.774h4.2l-1.34-.774z" fill="#5485cc" stroke-linejoin="round"/></g><g fill="none" stroke-linecap="round"><path d="M46.484 39.9l-2.4 5.985m3.34-4.835l3.175 1.833-3.238 1.87m-4-3.768l-3.175 1.833 3.238 1.87" stroke-linejoin="round" stroke-width=".523"/><path d="M5.27 19.687l3.32-.9.9 3.32m47.56-1.86l-1.74 2.964-2.964-1.74M33.514 61.83l-2.598-2.25 2.25-2.598" stroke-linejoin="round" stroke-width=".548"/></g></g><path d="M38.962 11.916l-.457.457c-.052.052-.052.135 0 .187l.717.717c.052.052.135.052.187 0l.457-.457c.052-.052.052-.135 0-.187l-.717-.717c-.052-.052-.135-.052-.187 0zm-.96.96L34.91 15.97a.51.51 0 0 0-.13.221l-.324 1.137 1.137-.324a.51.51 0 0 0 .221-.13l3.093-3.093c.052-.052.052-.135 0-.187l-.717-.717c-.052-.052-.135-.052-.187 0zm14.36 44.784q-.243 0-.432-.093-.187-.093-.294-.26-.104-.166-.104-.38v-1.292q0-.045.03-.075.03-.03.075-.03.045 0 .075.03.03.03.03.075v1.292q0 .158.077.278.08.12.222.2.14.067.323.067.18 0 .318-.067.14-.07.216-.2.08-.12.08-.278v-1.292q0-.045.03-.075.03-.03.075-.03.048 0 .075.03.03.03.03.075v1.292q0 .214-.107.38-.104.166-.3.26-.184.093-.424.093zm1.434.582q-.048 0-.077-.03-.027-.027-.027-.075v-1.26q.003-.208.1-.374.1-.168.264-.264.168-.096.376-.096.214 0 .382.1.168.096.264.264.1.168.1.382 0 .2-.096.38-.093.168-.256.267-.163.096-.368.096-.18 0-.326-.075-.144-.077-.232-.203v.785q0 .048-.03.075-.027.03-.072.03zm.635-.798q.155 0 .278-.072.123-.072.192-.198.072-.128.072-.286 0-.16-.072-.286-.07-.125-.192-.198-.123-.075-.278-.075-.152 0-.275.075-.123.072-.192.198-.07.125-.07.286 0 .158.07.286.07.125.192.198.123.072.275.072zm1.813.186q-.2 0-.38-.096-.168-.1-.267-.267-.096-.168-.096-.382 0-.2.093-.38.096-.168.26-.264.163-.1.368-.1.18 0 .323.077.144.075.232.2v-.785q0-.048.03-.075.03-.03.075-.03.045 0 .075.03.03.027.03.075v1.26q-.005.208-.104.376-.096.166-.264.262-.166.096-.374.096zm0-.187q.155 0 .275-.072.123-.075.192-.2.072-.125.072-.286 0-.158-.072-.283-.07-.128-.192-.2-.12-.072-.275-.072-.152 0-.275.072-.123.072-.195.2-.072.125-.072.283 0 .16.072.286.072.125.195.2.123.072.275.072zm1.856.187q-.206 0-.368-.096-.163-.1-.26-.267-.093-.168-.093-.38 0-.214.096-.382.1-.168.267-.264.168-.1.38-.1.2 0 .376.1.168.096.264.264.1.168.1.382l-.083.064q0 .192-.1.347-.088.152-.243.243-.152.088-.347.088zm.02-.187q.155 0 .275-.072.123-.072.192-.198.072-.128.072-.286 0-.16-.072-.286-.07-.125-.192-.198-.12-.075-.275-.075-.152 0-.275.075-.123.072-.195.198-.072.125-.072.286 0 .158.072.286.072.125.195.198.123.072.275.072zm.638.174q-.045 0-.075-.027-.03-.03-.03-.075v-.456l.05-.2.158.04v.627q0 .045-.03.075-.03.027-.075.027zm1.087 0q-.14 0-.254-.067-.1-.067-.174-.182-.064-.117-.064-.267v-1.305q0-.045.027-.075.03-.03.075-.03.045 0 .075.03.03.03.03.075V57.1q0 .136.08.224.08.085.206.085h.072q.043 0 .07.03.027.03.027.075 0 .045-.032.075-.032.027-.08.027zm-.665-1.228q-.04 0-.067-.024-.027-.027-.027-.064 0-.04.027-.064.027-.027.067-.027h.68q.04 0 .067.027.027.024.027.064 0 .037-.027.064-.027.024-.067.024zM61 57.63q-.216 0-.384-.093-.166-.096-.262-.264-.093-.168-.093-.384 0-.22.088-.384.1-.168.248-.264.158-.096.363-.096.203 0 .352.093.152.1.235.254.083.163.083.37 0 .043-.027.07-.027.024-.07.024h-1.135v-.17h1.156l-.115.083q.003-.155-.056-.278-.06-.123-.168-.192-.107-.07-.256-.07-.152 0-.267.072-.115.072-.18.2-.06.125-.06.288 0 .163.07.288.072.125.195.198.123.072.283.072.096 0 .192-.032.1-.035.158-.085.03-.024.067-.024.037-.003.064.02.035.032.035.07.003.037-.03.064-.088.075-.224.125-.136.048-.262.048z" fill="#5485cc"/><defs ><path id="B" d="M22.897 7.078q-.093 0-.153-.06-.06-.06-.06-.153v-3.85q0-.093.06-.153.06-.06.153-.06h.986q.47 0 .86.16.394.153.68.444.285.285.438.674.16.39.16.86 0 .47-.16.866-.153.39-.438.68-.285.285-.68.444-.39.153-.86.153zm.214-.383h.772q.504 0 .887-.225.39-.23.608-.625.22-.4.22-.91 0-.51-.22-.904-.22-.4-.608-.625-.383-.225-.887-.225h-.772z"/><path id="C" d="M56.473 53.558q-.438 0-.783-.197-.345-.197-.542-.542-.197-.345-.197-.783 0-.444.197-.79.197-.345.542-.542.345-.197.783-.197.438 0 .778.197.345.197.542.542.197.345.203.79 0 .438-.203.783-.197.345-.542.542-.34.197-.778.197zm0-.383q.318 0 .57-.148.252-.148.394-.405.142-.257.142-.586 0-.33-.142-.586-.142-.263-.394-.41-.252-.148-.57-.148-.318 0-.57.148-.252.148-.4.41-.142.257-.142.586 0 .33.142.586.148.257.4.405.252.148.57.148z"/></defs></svg>