<svg xmlns="http://www.w3.org/2000/svg" xmlns:xlink="http://www.w3.org/1999/xlink" width="128" height="128" viewBox="0 0 33.867 33.867" xmlns:v="https://vecta.io/nano"><path d="M33.867 0h33.867v33.867H33.867z"/><path d="M37.385 3.518h26.83v26.83h-26.83z" fill="#1a1a1a"/><g fill="#5485cc"><path d="M43.303 3.637l.32 6.82c-.03 2.266-.475 4.514-.495 6.78-.023 2.564.44 5.117.42 7.68-.015 1.925-.403 5.76-.403 5.76l-2.747-.256c-1.03-.018-3.088.18-3.088.18l.23-6.705-.354-6.942.02-6.433.178-7.004 2.994.25c.975.02 2.924-.13 2.924-.13z"/><use xlink:href="#B"/><path d="M58.556 3.308s-.948 4.56-.31 6.958c.582 2.2-.187 4.343-.166 6.608l.23 7.714c.015 1.925.403 5.76.403 5.76l2.747-.256c1.03-.018 3.088.18 3.088.18l-.23-6.705.354-6.942-.02-6.433-.178-7.004-2.994.25c-.975.02-2.924-.13-2.924-.13z"/><use xlink:href="#B" x="0.222" y="13.385"/></g><path d="M67.734 0H101.6v33.867H67.734z"/><path d="M71.252 3.518h26.83v26.83h-26.83z" fill="#1a1a1a"/><path d="M71.112 3.366l.25 2.994c.02.975-.13 2.924-.13 2.924l.308 6.642c.266 1.42 3.824 2.43 4.847 2.473.65.027.002-2.828.735-5.068.453-1.384.8-3.66 1.07-3.735a17.93 17.93 0 0 1 2.523-.436c1.398-.137 2.63.615 4.085.602l7.714-.23c1.925-.015 5.76-.403 5.76-.403l-.256-2.747c-.018-1.03.18-3.088.18-3.088l-6.704.23-6.943-.354c-2.1-.03-4.337-.132-6.433.02l-7.004.178zm.33 27.1l7.004.178 6.433.02 6.942-.354 6.705.23-.18-3.088c.016-.92.256-2.747.256-2.747l-5.76-.403c-2.564-.02-5.116.444-7.68.42-2.266-.02-5.524-.253-6.182-.654-.145-.088-1.12-1.972-1.55-4.003-.632-2.98-1.395-6.236-1.7-6.227-1.478.044-3.525-5.233-4.44 2.987-.158 1.198.285 7.723.285 7.723l.13 2.924c-.02 1-.25 2.994-.25 2.994zm13.174-17.522c1.36-.048 1.686.3 2.4.928 1.12.986.784 1.997.894 3.018.123 1.14-.415 1.286-1.095 1.952-.95.93-1.662.953-2.688.98-1.57.042-1.947-.505-2.62-1.178s-.75-1.68-.75-2.705c-.003-1.574.443-2.06 1.27-2.53 1.172-.667 1.564-.43 2.6-.465zM27.868 7.24c-1.155-.722-1.6-.583-2.542-.396-1.463.294-1.678 1.337-2.283 2.166-.677.927-.283 1.32-.028 2.238.357 1.28.963 1.656 1.838 2.193 1.338.82 1.94.536 2.857.3s1.488-1.08 2.003-1.967c.8-1.36.646-2.005.165-2.826-.682-1.163-1.14-1.154-2-1.698zM13.6 6.956s.323.07-3.877.075c-4.22.183-5.07.26-5.505 3.15.192 4.327 2.83 2.843 6.524 2.857l2.746.08c4.67-.276 6.495.88 6.8-2.917-.396-3.702-3.2-3.27-6.7-3.245zM6.623 20.468c1.155-.722 1.6-.583 2.542-.396 1.463.294 1.678 1.337 2.283 2.166.677.927.283 1.32.028 2.238-.357 1.28-.963 1.656-1.838 2.193-1.338.82-1.94.536-2.857.3s-1.488-1.08-2.003-1.967c-.8-1.36-.646-2.005-.165-2.826.682-1.163 1.14-1.154 2-1.698zm14.277-.283s-.323.07 3.877.075c4.22.183 5.07.26 5.505 3.15-.192 4.327-2.83 2.843-6.524 2.857l-2.746.08c-4.67-.276-6.495.88-6.8-2.917.396-3.702 3.2-3.27 6.7-3.245z" fill="#5485cc"/><defs ><path id="B" d="M54.174 9.635c.048 1.36-.3 1.686-.928 2.4-.986 1.12-1.997.784-3.018.894-1.14.123-1.286-.415-1.952-1.095-.93-.95-.953-1.662-.98-2.688-.042-1.57.505-1.947 1.178-2.62s1.68-.75 2.705-.75c1.574-.003 2.06.443 2.53 1.27.667 1.172.43 1.564.465 2.59z"/></defs></svg>