<svg xmlns="http://www.w3.org/2000/svg" viewBox="0 0 33.867 33.867" height="128" width="128" fill="#5485cc" xmlns:v="https://vecta.io/nano"><path d="M3.378 3.366l.25 2.994c.02.975-.13 2.924-.13 2.924l.308 6.642c.266 1.42 3.824 2.43 4.847 2.473.65.027.002-2.828.735-5.068.453-1.384.8-3.66 1.07-3.735a17.93 17.93 0 0 1 2.523-.436c1.398-.137 2.63.615 4.085.602l7.714-.23c1.925-.015 5.76-.403 5.76-.403l-.256-2.747c-.018-1.03.18-3.088.18-3.088l-6.704.23-6.943-.354c-2.1-.03-4.337-.132-6.433.02l-7.004.178zm.33 27.1l7.004.178 6.433.02 6.942-.354 6.705.23-.18-3.088c.016-.92.256-2.747.256-2.747l-5.76-.403c-2.564-.02-5.116.444-7.68.42-2.266-.02-5.524-.253-6.182-.654-.145-.088-1.12-1.972-1.55-4.003-.632-2.98-1.395-6.236-1.7-6.227-1.478.044-3.525-5.233-4.44 2.987-.158 1.198.285 7.723.285 7.723l.13 2.924c-.02 1-.25 2.994-.25 2.994zm13.174-17.522c1.36-.048 1.686.3 2.4.928 1.12.986.784 1.997.894 3.018.123 1.14-.415 1.286-1.095 1.952-.95.93-1.662.953-2.688.98-1.57.042-1.947-.505-2.62-1.178s-.75-1.68-.75-2.705c-.003-1.574.443-2.06 1.27-2.53 1.172-.667 1.564-.43 2.6-.465z"/></svg>