<svg xmlns="http://www.w3.org/2000/svg" viewBox="0 0 54.408 54.408" height="205.637" width="205.637" fill="#5485cc" xmlns:v="https://vecta.io/nano"><path d="M12.947 9.892q.138 0 .2.073.073.065.065.18-.008.13-.106.203-.097.065-.268.065h-.64l-.243 1.396h.657q.138 0 .203.073.065.065.065.17 0 .106-.097.195-.1.08-.276.08h-.666l-.292 1.68q-.032.146-.13.235-.1.08-.235.08-.13 0-.203-.08-.065-.1-.032-.235l.284-1.68H9.668l-.292 1.68q-.024.13-.122.227-.097.1-.235.1-.13 0-.203-.08-.065-.08-.04-.235l.292-1.68h-.682q-.13 0-.203-.065-.065-.065-.057-.17.008-.138.106-.2.097-.073.243-.073h.706l.235-1.396h-.674q-.146 0-.22-.065-.073-.065-.073-.18 0-.13.097-.203.097-.073.268-.073h.714l.292-1.63q.024-.138.122-.227.097-.097.235-.097.13 0 .195.1.073.1.05.227l-.292 1.64h1.583l.292-1.63q.016-.138.114-.227.106-.097.243-.097.154 0 .203.097.057.1.032.22l-.284 1.64zm-1.6 1.916l.243-1.396h-1.583l-.235 1.396zm4.17 2.515q-.13 0-.227-.1-.1-.1-.1-.227V8.73l-.812.284q-.1.04-.162.04-.138 0-.227-.1-.1-.1-.1-.22 0-.097.04-.18.05-.08.162-.122l1.25-.43q.04-.016.08-.024.05-.016.08-.016.138 0 .22.097.1.1.1.22v5.714q0 .138-.1.227-.1.1-.227.1z"/><path d="M20.055 9.146H45.98v3.923H20.055z" fill-opacity=".503"/><path d="M7.952 16.232h38.052v1.86H7.952zm0 3.175h38.052v1.86H7.952zm0 3.175h38.052v1.86H7.952z" fill-opacity=".232"/><path d="M7.884 30.313H33.8v3.923H7.884z" fill-opacity=".503"/><path d="M7.952 37.4h38.052v1.86H7.952zm0 3.174h38.052v1.86H7.952zm0 3.176h38.052v1.86H7.952z" fill-opacity=".232"/></svg>