<svg xmlns="http://www.w3.org/2000/svg" xmlns:xlink="http://www.w3.org/1999/xlink" viewBox="0 0 16.933 16.933" height="64" width="64" xmlns:v="https://vecta.io/nano"><g fill="#fff"><circle r="6.782" cy="7.937" cx="7.937" fill-opacity=".173"/><circle cx="7.937" cy="8.996" r="6.782" fill-opacity=".173"/><circle r="6.782" cy="7.937" cx="8.996" fill-opacity=".173"/><circle cx="8.996" cy="8.996" r="6.782" fill-opacity=".173"/></g><path d="M15.498 8.918c0 3.746-3.82 6.077-7.56 6.278-2.457.132-5.846-3.11-6.253-6.73-.21-1.86.567-4.228 2.003-5.203 2.312-1.57 2.906-1.58 4.78-1.58S11.83 2.69 13.262 3.67c1.19.816 2.236 3.374 2.236 5.247z" fill="#dfdfdf"/><g fill="#4f83cf"><path d="M8.42 4.02c-.84 0-1.436.622-1.95.945-.5.31-1.4.51-1.774 1.203-.35.646-.47 1.502-.47 2.278 0 .823.37 1.553.706 2.157.383.67 1.072.964 1.632 1.303.566.328 1.152.767 1.987.767 1.095 0 2.025-.336 2.773-1.023.174-.16.248-.36.218-.594-.02-.215-.116-.396-.275-.542l-.005-.005-.007-.005a.76.76 0 0 0-.552-.18c-.197.015-.37.1-.52.225l.092-.052-.858.3c-.386.12-.58.424-.843.424-.45 0-.81-.255-1.246-.516-.406-.244-.754-.512-.952-.884-.188-.354-.08-.762-.08-1.36 0-.632-.267-1.23-.11-1.554.166-.326.683-.36 1.137-.653.465-.292.708-.682 1.1-.682.5 0 .866.333 1.33.755 0 0 .083.113.583.37l-.093-.074c.128.153.29.268.486.313l.012.003h.012c.207.03.404-.017.57-.138.176-.126.308-.29.358-.507.052-.242-.02-.448-.182-.627-.393-.48-.852-.846-1.38-1.1-.466-.22-1.044-.557-1.698-.557zm3.08 1.648l-.002-.005zm.042 5.388l.003-.01z"/><use xlink:href="#B" fill-opacity=".104"/></g><use xlink:href="#B" x="-0.54" y="-0.538" fill="#5789d1" fill-opacity=".104"/><use xlink:href="#C" opacity="1" fill="#4f83cd" fill-opacity=".14"/><use xlink:href="#C" x="-0.263" y="-0.077" opacity="1" fill="#5084cf"/><use xlink:href="#C" x="-0.423" y="-0.147" opacity="1" fill="#4f83cd" fill-opacity=".14"/><defs ><path id="B" d="M8.91 4.315c-.84 0-1.436.622-1.95.945-.5.31-1.4.51-1.774 1.203-.35.646-.47 1.502-.47 2.278 0 .823.37 1.553.706 2.157.383.67 1.072.964 1.632 1.303.566.328 1.152.767 1.987.767 1.095 0 2.025-.336 2.773-1.023.174-.16.248-.36.218-.594-.02-.215-.116-.396-.275-.542l-.005-.005-.007-.005a.76.76 0 0 0-.552-.18c-.197.015-.37.1-.52.225l.092-.052-.858.3c-.386.12-.58.424-.843.424-.45 0-.81-.255-1.246-.516-.406-.244-.754-.512-.952-.884-.188-.354-.08-.762-.08-1.36 0-.632-.267-1.23-.11-1.554.166-.326.683-.36 1.137-.653.465-.292.708-.682 1.1-.682.5 0 .866.333 1.33.755 0 0 .083.113.583.37l-.093-.074c.128.153.29.268.486.313l.012.003.012.002c.207.03.404-.017.57-.138.176-.126.308-.29.358-.507.052-.242-.02-.448-.182-.627-.393-.48-.852-.846-1.38-1.1-.466-.22-1.044-.557-1.698-.557zm3.08 1.648l-.002-.005zm.042 5.388l.003-.01z"/><path id="C" d="M9.986 8.527c.047.29.038.613-.152.734a1.29 1.29 0 0 1-.742.183c-.272-.016-.546-.155-.65-.274-.166-.2-.213-.446-.215-.7-.002-.272.12-.453.206-.63.11-.227.384-.3.654-.324.346-.043.572.142.748.323.208.214.107.41.15.678z"/></defs></svg>