<svg xmlns="http://www.w3.org/2000/svg" viewBox="0 0 54.408 54.408" height="205.637" width="205.637" xmlns:v="https://vecta.io/nano"><path d="M25.688 44.12c-5.374-.745-9.935-3.745-12.608-8.292-1.138-1.937-2.012-4.46-2.207-6.377l-.06-.597 1.684-.17 2.11-.217.425-.046.063.492c.255 1.997 1.093 4.106 2.253 5.67 2.56 3.452 6.194 5.326 10.36 5.34 2.686.01 4.952-.655 7.107-2.083.403-.267.9-.63 1.1-.807l.367-.32-3.995-4.016 1.035-.153 5.71-.84 4.894-.74c.202-.048.214-.03.163.25a1174.76 1174.76 0 0 0-.894 5.896l-.86 5.62c-.01.013-.595-.557-1.295-1.27s-1.387-1.376-1.526-1.476l-.252-.18-.62.526c-1.967 1.67-4.74 2.995-7.494 3.577-.925.195-1.406.238-2.983.266-1.034.018-2.148-.003-2.476-.05zm14.72-17.802c-.295-3.14-1.574-5.908-3.718-8.052-3.21-3.21-7.822-4.472-12.24-3.35-2.484.63-4.908 2.132-6.473 4.012l-.438.525 1.98 1.97c1.242 1.238 1.93 1.987 1.85 2.014-.07.023-1.262.212-2.65.42l-7.84 1.187c-.605.096-1.125.146-1.155.112s.04-.68.157-1.437l.866-5.823.687-4.48c.018-.018.7.63 1.515 1.444s1.51 1.478 1.542 1.478.336-.305.674-.678c2.236-2.47 5.57-4.35 8.964-5.06 7.758-1.62 15.507 2.225 18.953 9.405.778 1.62 1.386 3.82 1.546 5.597l.062.69-1.914.303-2.1.348c-.183.042-.2-.001-.26-.627z" fill="#5485cc"/></svg>