<svg xmlns="http://www.w3.org/2000/svg" xmlns:xlink="http://www.w3.org/1999/xlink" viewBox="0 0 190.869 190.869" height="721.395" width="721.395" xmlns:v="https://vecta.io/nano"><g fill="#5485cc"><path d="M23.462 36.173l.055.367.02.16c-.014-.015-.023.032-.022.126.001.126.02.19.04.138.005-.012.005-.033.007-.05l.072.632c-.013-.01-.022.034-.02.126 0 .126.018.188.04.138.004-.01.004-.03.006-.044l.08.715c-.016-.033-.03.008-.028.114 0 .126.017.188.038.137.007-.016.007-.043.01-.067l.07.657c-.016-.027-.027.015-.027.118 0 .126.017.188.038.137.006-.015.007-.04.01-.062l.067.647c-.015-.02-.026.023-.026.122 0 .126.017.188.038.137.006-.014.006-.037.008-.056l.064.636c-.014-.016-.024.03-.024.126-.001.126.016.187.037.136.005-.012.005-.034.008-.052l.062.633c-.012-.004-.02.055-.02.162.001.147.017.207.036.134.005-.017.004-.04.007-.062l.067.693c-.016-.035-.03.006-.03.113-.001.126.015.187.036.136.007-.017.01-.044.01-.07l.06.655c-.016-.028-.028.014-.03.117-.002.126.015.187.036.135.007-.015.007-.04.01-.064l.06.644c-.015-.02-.026.023-.027.123-.002.126.015.186.036.135.006-.014.007-.038.01-.06l.06.636c-.014-.016-.025.03-.026.126-.002.126.014.186.036.134.006-.013.006-.035.01-.053l.066.723c-.017-.045-.033-.004-.034.108-.002.126.015.186.037.134.008-.02.01-.048.012-.076-.002-.02.062.683.06.664-.017-.036-.03.006-.032.114-.002.126.014.186.036.134.007-.018.01-.046.012-.072l.047.516c-.001-.01.013.148.012.14-.016-.03-.03.013-.03.118-.002.126.014.186.036.133.007-.016.008-.042.01-.065.275 3.062-.217-2.416.058.646-.015-.024-.028.02-.03.12-.002.126.014.186.036.133.006-.015.008-.04.01-.06l.057.64c-.014-.012-.024.048-.025.162-.001.147.015.206.036.132.006-.02.006-.048.008-.073l.062.706c-.018-.046-.033-.005-.034.11-.002.126.014.186.036.133.008-.02.01-.05.013-.08l.06.67c-.017-.04-.03.003-.033.113-.002.126.014.186.036.133.008-.018.01-.047.013-.073l.058.66c-.016-.033-.03.01-.03.116-.003.126.014.186.036.133.007-.017.008-.044.01-.068l.057.652c-.015-.025-.028.018-.03.12-.002.127.014.187.036.134.007-.016.008-.04.01-.064l.065.743c-.02-.057-.036-.016-.037.104-.002.127.014.188.036.135.01-.02.012-.054.015-.086l.06.685c-.018-.05-.034-.01-.036.108-.002.127.014.187.036.134.008-.02.01-.05.013-.08l.06.678c-.017-.042-.032-.001-.033.112-.002.128.014.188.036.135.008-.02.01-.048.013-.076.06.695-.002-.024.06.67-.016-.035-.03.007-.032.117-.002.128.014.19.036.135.007-.018.01-.046.012-.07l.06.666c-.015-.024-.027.034-.028.158-.001.15.016.2.036.135.006-.023.007-.055.01-.084l.065.737c-.02-.06-.036-.017-.037.105-.003.13.014.2.036.137a.31.31 0 0 0 .014-.089l.062.7c-.018-.052-.034-.01-.035.108l.001.07c.004.077.018.107.035.066.007-.017.01-.04.012-.067l.02.197.043.462c-.018-.044-.033-.003-.034.11-.002.126.014.185.036.133.008-.02.01-.048.013-.076l.06.663c-.017-.037-.03.004-.032.113-.002.125.015.185.037.133.007-.017.01-.045.01-.07l.07.75c-.02-.07-.038-.027-.04.096s.015.185.036.133c.01-.023.014-.058.015-.094l.065.69c-.02-.06-.036-.018-.037.1-.002.125.015.185.036.133.01-.02.012-.054.015-.087l.064.68c-.018-.052-.034-.01-.035.104-.002.125.015.184.036.132a.29.29 0 0 0 .014-.082l.063.67c-.018-.044-.032-.003-.033.108-.002.125.015.184.036.132.008-.02.01-.048.012-.076l.062.66c-.016-.032-.03.024-.03.15 0 .145.017.204.036.13.007-.025.008-.06.01-.092l.07.73c-.02-.07-.038-.027-.04.096s.015.183.036.13c.01-.023.014-.057.015-.092-.008-.08.073.764.065.685-.02-.06-.036-.02-.037.1s.015.183.036.13c.01-.022.012-.054.014-.087l.065.675c-.018-.05-.034-.01-.035.105-.001.124.015.183.036.13.01-.02.01-.052.013-.082l.064.665c-.018-.043-.033-.003-.033.11-.002.124.015.183.036.13.008-.02.01-.048.013-.076-.005-.052.08.846.076.794-.002-.016-.002-.033-.006-.047-.02-.072-.038-.03-.04.095s.015.182.036.13a.3.3 0 0 0 .016-.098l.066.69c-.02-.068-.038-.026-.04.097s.015.182.036.13a.3.3 0 0 0 .015-.093l.065.682c-.02-.06-.036-.018-.037.1-.002.124.014.182.036.13.01-.022.012-.055.014-.09l.063.673c-.018-.052-.034-.012-.035.104-.001.04.001.075.004.1.005.056.017.073.032.034.004-.01.007-.023.01-.037s.004-.032.005-.05l.004.048.053.683c-.017-.045-.03.017-.03.16-.001.16.015.223.035.143.007-.03.01-.07.012-.108l.07.855c-.002-.017-.001-.036-.005-.052-.02-.08-.038-.032-.04.103s.014.2.035.142c.01-.026.015-.066.016-.108-.05-.604.112 1.356.062.752-.02-.075-.037-.03-.038.102s.014.196.035.14a.34.34 0 0 0 .015-.099c.068.797-.005-.064.062.734-.02-.067-.036-.023-.037.104s.015.195.036.14c.01-.023.012-.058.014-.094l.064.72c-.02-.066-.036-.023-.037.103s.014.193.035.14c.01-.023.013-.06.015-.095l.293 3.24.207 2.366c.007.007 1.032.254 2.667.623l6.347 1.413 9.236 2.173c.026 0 .476-.135 1.217-.36l9.027-2.5 3.107-.713 1.948-.376 3.248-.594c.002-.002.127-1.258.22-2.287l.06-.705c.002.115.018.172.04.125s.022-.15 0-.224c-.01-.036-.02-.044-.028-.03l.06-.693c.001.117.018.175.04.127s.022-.152 0-.227c-.01-.038-.02-.046-.028-.03l.06-.703c.001.118.018.178.04.13a.41.41 0 0 0 .001-.23c-.01-.038-.02-.047-.028-.03L65 76.12c0 .12.017.18.038.13s.023-.156.002-.233c-.01-.04-.02-.048-.028-.03l.07-.725c-.002.124.014.186.036.136a.43.43 0 0 0 .005-.236c-.01-.043-.02-.043-.03-.017l.084-.8c.001.092.013.143.032.1.024-.052.027-.16.008-.24-.007-.03-.014-.037-.02-.034l.086-.71c-.001.1.01.155.032.11.025-.053.03-.162.012-.242-.007-.033-.015-.04-.022-.034l.1-.73c-.005.11.007.17.03.122a.47.47 0 0 0 .017-.245c-.007-.036-.015-.044-.023-.035l.104-.657.015-.083-.002.084c.002.055.012.074.03.04.005-.01.01-.022.013-.035.016-.052.02-.13.008-.19-.007-.036-.016-.044-.024-.03l.12-.68c-.01.115.003.173.03.127s.035-.147.02-.222c-.008-.037-.017-.046-.026-.03l.123-.725c-.003.087.007.135.03.095.026-.048.034-.148.018-.223-.006-.028-.013-.036-.02-.033l.11-.658c-.004.094.007.146.03.103.026-.048.034-.15.017-.223-.007-.03-.014-.038-.02-.032l.107-.67c-.004.1.007.155.03.11s.033-.15.016-.224c-.007-.033-.016-.04-.023-.03l.105-.678c-.005.108.007.164.03.12s.032-.15.015-.224c-.008-.035-.017-.043-.025-.03l.103-.692c-.006.117.007.177.03.13a.39.39 0 0 0 .014-.225c-.01-.037-.02-.046-.027-.03l.106-.735c-.001.087.01.136.03.094.025-.05.03-.15.013-.225-.007-.028-.014-.036-.02-.032l.092-.666c-.001.093.01.145.032.102.025-.05.03-.15.01-.226-.008-.03-.015-.038-.022-.032l.1-.68c-.002.103.01.157.032.112s.03-.15.01-.226c-.008-.033-.017-.04-.024-.03l.088-.7c-.003.11.01.168.033.12s.028-.152.01-.227c-.01-.036-.018-.043-.026-.03l.1-.736c-.001.075.003.126.01.145s.014.01.024-.02c.022-.072.025-.19.006-.265-.007-.028-.014-.032-.02-.024l.08-.67c.002.086.013.135.033.093a.4.4 0 0 0 .008-.228c-.007-.028-.015-.035-.022-.032l.077-.676c.001.096.013.148.034.104.024-.05.027-.153.007-.228-.008-.03-.016-.037-.023-.03l.076-.686c0 .103.014.157.035.11s.026-.153.006-.228c-.01-.033-.018-.04-.025-.03 207.917-1915.245-207.868 1914.798.048-.447l.02-.197c-.001.004.006-.056.005-.052l.001.052c.004.075.018.107.036.068.008-.017.013-.04.016-.066.006-.052.002-.116-.01-.167-.01-.036-.02-.043-.026-.03l.083-.757c.003.082.014.13.033.087.024-.052.027-.157.007-.234-.007-.027-.014-.035-.02-.034l.08-.68c.002.09.013.138.034.095.025-.05.03-.156.01-.233-.008-.03-.015-.036-.022-.033l.085-.685c.001.094.013.146.034.102.025-.05.03-.155.01-.232-.008-.03-.016-.038-.023-.033l.09-.7c-.001.1.012.154.035.11.026-.05.03-.155.01-.232-.008-.033-.017-.04-.025-.03l.093-.7c-.003.11.01.166.035.12s.03-.154.01-.23c-.01-.036-.02-.043-.027-.03l.1-.737c.002.077.013.122.034.083.026-.05.03-.154.01-.23-.007-.026-.014-.034-.02-.034l.09-.662c.002.083.013.13.035.09a.37.37 0 0 0 .01-.229c-.007-.027-.015-.035-.022-.034.166-1.21-.074.54.092-.67.001.09.013.14.036.098.027-.05.032-.153.01-.23-.008-.03-.016-.036-.024-.032l.092-.677c0 .097.014.15.038.106.027-.05.03-.152.01-.23-.01-.032-.018-.04-.026-.032l.09-.682c0 .103.015.158.04.113a.35.35 0 0 0 .008-.228c-.01-.034-.02-.042-.028-.032l.093-.723c.005.074.017.116.038.078.027-.05.03-.15.007-.227-.007-.024-.015-.033-.022-.035l.08-.652c.005.08.018.126.04.086.027-.05.03-.15.005-.227-.01-.027-.016-.034-.024-.033l.075-.66c.005.086.02.135.042.094a.33.33 0 0 0 .002-.227c-.01-.03-.02-.036-.027-.033l.014-.13.056-.536c.005.09.022.143.045.1.027-.05.027-.15 0-.227-.01-.03-.02-.038-.03-.033l.064-.676c.006.1.024.154.048.1.027-.05.025-.15-.003-.228-.012-.032-.023-.04-.032-.033l.044-.537c0 .002.012-.188.012-.186.01.07.023.107.043.065.026-.055.023-.156-.007-.23-.01-.022-.016-.03-.023-.03l.04-.66c.01.075.028.118.05.077.027-.05.022-.153-.01-.228-.01-.025-.02-.032-.028-.032l.037-.66c.012.083.033.13.056.09.03-.048.023-.15-.014-.228-.013-.028-.024-.036-.033-.035l.03-.66c.014.1.038.143.063.105.03-.045.022-.146-.02-.228-.016-.032-.028-.04-.037-.037l.022-.695c.02.112.047.17.07.113.024-.065.01-.184-.035-.268-.012-.023-.022-.033-.03-.036l.006-.62c.02.07.044.113.066.083.03-.04.016-.142-.032-.23-.013-.024-.025-.037-.034-.042l-.013-.627c.022.077.048.127.07.096.03-.04.01-.143-.04-.23-.016-.028-.028-.04-.038-.044l-.038-.64c.025.084.055.137.075.105.026-.04.003-.145-.05-.235-.018-.03-.03-.042-.04-.044l-.072-.66c.03.09.062.148.08.113.022-.042-.007-.15-.062-.24-.02-.033-.032-.043-.04-.043l-.124-.73c.028.065.054.105.064.073.015-.047-.02-.16-.076-.25-.014-.022-.025-.037-.033-.043L68.63 37c.032.073.06.12.064.08.006-.054-.038-.173-.093-.26-.016-.025-.026-.037-.033-.04l-.053-.182-.122-.424-.835.063-1.478.04c-1.605.004-3.25-.104-4.877-.252l-1.834-.18-3.114-.335-9.163-.646-1.155-.01c-.718-.001-1.433.01-2.15.03-6.78.202-13.43 1.857-20.325 1.293zm22.46 2.873l.017 2.9.03 2.793 1.137-.001a193.86 193.86 0 0 1 5.852.107l3.327.132 3.25.168c.444.027.72.047.727.055.012.018-.047.982-.126 2.094-.112 1.483-.278 3.244-.302 3.32-.001.002-.075 0-.2-.005l-3.27-.12-3.568-.105-5.63-.066-1.136.004-.001 2.88-.01 2.956 1.135-.006 5.35.044 3.834.1 2.9.105c0-.003-.001.222-.001.218 0 .1-.077.93-.2 2.2a202.07 202.07 0 0 1-.689 6.26l-.834 6.08-.276 2.252c-.016.032-.466.174-1.256.41l-4.512 1.31-4.506 1.332-1.088.33.02 2.148.014 2.156c-.004.044-.022-.6-.04-2.155l-.032-2.093-2.105-.558c1.92.5-5.46-1.452-3.54-.942L34.51 73.8c-.002-.002-.023-.294-.03-.364.018-.062.02-.164.004-.242-.01-.042-.018-.05-.025-.03l-.05-.652c.03-.07.032-.2.014-.275-.013-.062-.024-.033-.032.032l-.045-.753c.004-.002.01-.012.015-.036s.01-.053.013-.083a.58.58 0 0 0-.009-.19c-.016-.062-.03-.01-.033.097.136 1.6-.19-2.217-.053-.617.005 0 .01-.006.016-.028.02-.072.02-.187.003-.257-.017-.064-.03-.01-.034.105l-.054-.627c.005.003.01-.003.018-.026.02-.072.02-.187.003-.257s-.032-.01-.035.114l-.057-.685c.005.006.01.006.02-.012.022-.05.024-.15.005-.22-.017-.065-.032-.026-.037.074l-.053-.642c.005.002.01-.003.016-.017.022-.05.024-.15.005-.22-.016-.06-.03-.025-.035.06l-.055-.66c.005.006.012.002.02-.024.02-.072.02-.188.002-.258s-.032-.01-.035.115l-.053-.636c.004-.001.01-.01.015-.028.02-.072.02-.188.002-.258-.016-.058-.027-.012-.03.08l-.05-.66c.027-.058.028-.157.01-.23-.01-.04-.02-.038-.027-.014-.003-.053-.02-.262-.02-.282l-.002-.314 2.81-.113 2.785-.095c0-.001.043.387.043.386.002.015.01.105.01.12-.014-.018-.025.026-.026.12-.003.122.013.18.034.13.006-.014.006-.037.01-.056l.053.62c-.014-.018-.025.037-.026.152-.001.142.014.2.033.127.006-.022.007-.052.01-.08l.052.61c-.014-.026-.026.03-.027.148-.002.14.013.2.033.128.007-.024.008-.057.01-.087l.018.214.045.54c-.002-.015-.001-.03-.005-.044-.018-.07-.036-.03-.04.09s.012.18.033.13c.01-.024.015-.06.017-.096l.104 1.155c.01.01 1.323.323 2.91.71l1.084.266 1.943.49c.3-1.656.25-2.967.168-3.207s-.182.6.032 3.238c.026-.001.455-.117 1.076-.285l5.053-1.336c.013-.013.22-1.655.414-3.335l.373-3.525c.001-.07-.8-.118-3.456-.13-.76-.003-1.517-.003-2.272 0l-1.134.008-2.106.027-10.354.24c0-.004-.046-.525-.05-.566.006.02.014.022.024-.003.02-.05.023-.152.004-.224s-.037-.03-.04.093c-.001.033.003.046.004.07l-.066-.75c.006.013.013.014.022-.007a.42.42 0 0 0 .004-.225c-.02-.07-.036-.03-.038.088l-.06-.673c.005.006.012.006.02-.012a.42.42 0 0 0 .003-.226c-.018-.067-.034-.028-.037.075l-.06-.693c.006.014.013.01.022-.02a.5.5 0 0 0 .014-.102c.003-.062-.002-.127-.014-.174-.02-.077-.035-.013-.035.144l-.06-.72c.006.007.012.002.02-.026.02-.078.02-.205.001-.282s-.032-.012-.034.127l-.06-.75c.005.005.01.003.018-.015.02-.055.023-.163.004-.24-.017-.07-.032-.03-.036.075l-.056-.688c.004 0 .01-.006.015-.02.02-.055.023-.162.004-.238-.016-.065-.03-.028-.035.06-.087-1.05.03.348-.058-.703.005.004.01 0 .018-.027.02-.077.02-.2.001-.275-.018-.07-.032-.01-.034.12l-.056-.67c.005-.001.01-.01.015-.03a.65.65 0 0 0 .001-.273c-.017-.065-.03-.01-.032.1-.056-.666.001.016-.055-.65.004-.004.008-.012.013-.03a.64.64 0 0 0 .001-.271c-.016-.06-.027-.012-.032.085l-.06-.68c.004-.001.01-.005.014-.017a.44.44 0 0 0 .003-.231c-.016-.06-.028-.027-.034.05l-.057-.643a.39.39 0 0 0 .015-.245c-.016-.058-.027-.027-.033.045l-.06-.662c.005.001.01-.005.016-.028.02-.074.02-.193 0-.265-.018-.065-.03-.01-.033.106l-.06-.64c.005-.001.01-.01.015-.03.02-.074.02-.192-.001-.264-.017-.063-.03-.01-.032.1l-.065-.68c.005.002.01-.003.015-.017a.42.42 0 0 0 .002-.225c-.017-.063-.03-.026-.035.063l-.062-.64c.004 0 .01-.005.014-.018.02-.052.022-.153.002-.224-.017-.06-.03-.026-.034.06l-.067-.667c.006.008.012.004.02-.024a.59.59 0 0 0-.002-.261c-.02-.068-.034-.01-.034.122l-.028-.276c-.664-6.25.624 5.874-.04-.375.005.005.012.001.018-.025a.59.59 0 0 0-.003-.26c-.02-.067-.033-.01-.033.117l-.068-.643c.005.003.01-.003.017-.026a.59.59 0 0 0-.003-.26c-.02-.065-.03-.01-.032.11l-.054-.516c-.001-.007-.028-.212-.03-.22.06.02 1.322-.034 3.366-.14l8.487-.364c.02-.001.02-.002 0-.003-.185-.007-2.02.006-4.872.12-3.79.15-6.922.353-6.98.386l-.007-.056 7.014-.35 4.846-.146 2.112-.023-.03-2.793-.017-2.9zM38.27 50.5v.253c0 .062.027.4.06.82-.002-.022-.002-.046-.007-.065-.02-.074-.037-.03-.038.096s.014.187.035.134c.01-.024.013-.06.015-.098l.06.7c-.018-.056-.033-.014-.034.105-.002.127.014.188.035.135a.31.31 0 0 0 .013-.083l.057.682c-.016-.035-.028.022-.028.152 0 .15.015.2.034.135.006-.026.008-.06.01-.093l.054.65c-.014-.02-.025.04-.025.162 0 .15.015.212.034.136.006-.022.006-.052.008-.08l.052.635c-.012-.007-.022.057-.022.17-.001.152.015.213.034.137.005-.02.005-.044.007-.067l.058.718c-.015-.033-.028.01-.03.12-.002.132.013.194.034.14.007-.017.008-.044.01-.07l.015.186c0 .078.786.06 3.65-.003l1.538-.028 2.107-.025c-.356 103.025.366-105.98.01-2.956l.001-2.88-2.1.023-1.765.034-3.877.12zm-.037.066c-.012-.007-.02.055-.02.165 0 .146.016.205.035.13s.02-.194-.001-.266c-.005-.018-.01-.028-.014-.03zm-1.584 14.22l-1.425.065c-.89.05-.036.02 1.424-.034l1.418-.073-1.418.042zm3.095 3.695c-.013-.013-.023.033-.025.124-.004.122.012.18.033.13a.41.41 0 0 0 .006-.22c-.005-.018-.01-.03-.014-.033zm-12.488 8.627c-.013-.014-.024.035-.024.13-.002.13.014.2.035.137s.023-.158.003-.234c-.005-.02-.01-.03-.014-.034zm.077.85c-.013-.013-.024.035-.024.13-.002.127.014.188.035.135s.023-.156.003-.23c-.005-.02-.01-.03-.014-.034zm.077.842c-.013-.013-.023.034-.024.128-.002.126.014.186.035.134a.43.43 0 0 0 .003-.229c-.005-.018-.01-.03-.015-.034zm.076.833c-.013-.013-.024.034-.025.128-.002.125.013.185.034.133s.024-.154.005-.227c-.005-.018-.01-.03-.014-.034zm37.25-.265c-.014-.014-.024.03-.024.122-.001.122.017.182.04.133a.38.38 0 0 0 .001-.221.09.09 0 0 0-.015-.034zm-.075.803c-.014-.014-.025.03-.025.12-.001.12.016.18.038.132s.023-.146.002-.22c-.005-.018-.01-.03-.015-.034zm-37.104.364c-.013-.013-.024.034-.025.127-.003.124.013.183.034.13s.024-.152.005-.225c-.005-.018-.01-.03-.014-.034zm37.028.43c-.014-.014-.025.03-.025.12-.001.12.016.178.038.13s.023-.145.003-.217c-.005-.018-.01-.03-.015-.034zm-36.957.4c-.013-.013-.024.034-.026.126-.003.123.013.18.035.13s.023-.15.005-.223c-.005-.018-.01-.028-.014-.033zm18.4 4.818a.26.26 0 0 0-.095.019c-.052.023-.01.04.097.037s.148-.023.095-.043c-.027-.01-.062-.015-.097-.013z"/><path d="M55.977 23.22l-1.475-.057-1.476-.05c-.277.483-.55 1.073-.822 1.732l-.4 1.003-.105.225-.38.656c-.065.1-.158.067-.62-.68l-.103-.232-.33-.825-.92-1.97-1.477-.02-1.476-.01.02 3 .058 1.7.01.074-.002.1-.044 1.44-.03 2.307 1.38.001 1.38.012.054-2.316.083-1.402.874.905.443.52.012.02.498.93c.048.063.22-.14.664-.908l.014-.02.415-.42 1.027-.926-.053 1.38-.003 2.292 1.398.07 1.398.078.053-2.32.125-1.504.008-.117-.013-.074-.184-1.655c0 .002.003-.22.003-.22-.001.57.004-3.313.004-2.743zm-28.36.477l.027 2.035-.018.168-.228 1.83.01.084.023.173.282 2.172-.096 2.12 1.416-.056 1.416-.06.07-1.533.04-.732-.043-.66 1.326-.084 1.325-.078.035.612-.026.764-.042 1.6c-.28.013 1.698-.078 1.418-.065-.08.004 1.497-.067 1.418-.063l.054-2.353-.056-1.513a57.21 57.21 0 0 1-.006-.117 116.16 116.16 0 0 1-.009-.075l.052-1.9-.04-2.754-1.417.066-1.417.073.043 2.65-.008.208-.03.6-1.352-.02-1.355-.047.048-.612.012-.192c0 .02-.013-.8-.013-.77l-.027-1.67-1.416.093-1.417.098zm9.573-.538l.023 1.85.015.924-.004.222-.008.625 1.267-.027 1.267-.028-.003 1.054.01.074.012 1.016-.001.543-.042 2.352 1.42-.044 1.42-.036.043-2.873.008-1.008a35.49 35.49 0 0 1-.009-.074l-.016-1.06 1.266-.016 1.266-.01-.016-.65a1685.96 1685.96 0 0 1 .002-.232 299.62 299.62 0 0 0-.01-.948v-1.82l-3.95.047-3.947.117zm20.243.128L57.423 26l-.004.214.216 1.652c-.027-.142.042.217.014.074l-.01.12-.14 1.53-.063 2.336 6.9.36.072-1.426.046-.684.08-.742-2.058-.124-2.055-.113.13-1.25-.017-.076-.193-1.034-.098-.637a14.05 14.05 0 0 0 .005-.2l.03-2.55-1.417-.078-1.417-.072zm4.773 93.133c-4.123-.368-9.264-1.196-15.427-1.088l-.23.004-.3.007c-7.487.193-14.7 2.36-22.416 1.138l.018.126c-.02-.055-.034-.016-.03.1.005.127.024.2.043.14.007-.02.01-.05.01-.08l.092.684c-.02-.045-.03-.005-.028.107.003.126.022.188.042.138.007-.017.007-.046.01-.073l.084.668c-.017-.035-.028.006-.027.112.002.126.02.187.04.136.006-.016.007-.043.01-.068l.078.654c-.016-.026-.027.016-.026.12.001.126.02.187.04.136.006-.015.006-.04.01-.063l.06.53a1402.76 1402.76 0 0 1 .023.211c-.02-.056-.034-.015-.034.103 0 .126.018.187.04.135.008-.02.01-.052.012-.083l.072.68c-.018-.048-.032-.007-.033.107 0 .126.016.186.038.134.008-.02.01-.05.012-.077l.067.667c-.017-.036-.03.005-.03.113-.001.126.015.186.037.134.007-.018.01-.045.012-.072l.063.657c-.016-.03-.03.013-.03.118-.002.126.015.187.037.134.007-.016.008-.04.01-.064l.06.645c-.015-.017-.026.042-.026.16-.001.147.015.206.036.132.006-.02.007-.05.01-.076l.06.712c-.018-.05-.033-.007-.036.108-.003.126.013.186.036.133.01-.02.01-.05.014-.08l.056.673c-.017-.04-.032.001-.035.112-.003.126.012.187.035.134.008-.02.01-.048.014-.076l.053.662c-.016-.033-.03.01-.034.117-.004.126.012.186.035.133.007-.017.01-.043.012-.068l.05.65c-.015-.026-.028.018-.03.12-.004.126.01.186.035.133.007-.015.008-.04.012-.062l.054.737c-.018-.053-.034-.012-.04.106-.004.127.01.187.034.134.01-.02.013-.053.016-.085l.05.68c-.017-.045-.033-.004-.037.1-.005.127.01.187.035.134.008-.02.01-.05.015-.077l.048.668c-.016-.037-.032.005-.036.115-.004.127.01.187.035.134.008-.018.01-.045.013-.07l.046.658c-.015-.028-.03.016-.033.12-.005.127.01.188.034.134.007-.016.01-.042.013-.066l.045.65c-.014-.016-.027.043-.03.16-.004.148.01.2.033.133.007-.022.008-.05.01-.078l.05.72c-.017-.05-.034-.008-.04.108-.005.128.01.188.035.135.01-.02.012-.05.015-.08-.013-.2.06.868.046.68-.017-.042-.032 0-.036.113-.005.128.01.2.034.135.008-.018.01-.047.014-.075-.002-.034.05.704.046.67-.016-.032-.03.01-.035.12-.005.128.01.2.034.136.008-.017.01-.045.013-.07-.001-.018.047.68.046.662-.015-.025-.028.02-.032.123-.005.13.01.2.035.137.007-.015.008-.04.01-.062a4210.99 4210.99 0 0 0 .029.407c0-.001.026.357.026.355-.018-.057-.035-.014-.04.1-.004.132.012.196.036.14.01-.02.013-.054.016-.087 0-.005.052.715.052.7-.017-.046-.033-.003-.037.114-.004.132.012.195.035.14.008-.02.01-.05.014-.08 0-.003.053.7.053.698-.017-.038-.032.005-.035.117-.004.13.013.195.036.142.008-.017.01-.046.013-.072l.053.682c-.016-.03-.03.014-.033.12-.003.13.013.194.037.14.007-.016.008-.042.012-.065l.054.67c-.015-.016-.026.044-.028.163-.002.15.015.213.037.14.006-.02.007-.05.01-.076l.023.276.04.46c-.018-.052-.035-.01-.038.106-.003.13.014.192.037.14.01-.02.012-.052.015-.083l.06.694c-.015-.04-.028-.02-.034.053 0 .016.001.034.002.054.008.128.03.2.05.14.007-.02.007-.05.007-.078l.12.685c-.02-.044-.033-.004-.026.1.008.128.03.2.05.14.007-.018.006-.047.006-.074l.12.673c-.02-.037-.03.004-.024.112.01.126.03.188.05.137.006-.017.006-.045.007-.07l.136.76c-.027-.075-.042-.034-.034.1s.03.186.05.136c.008-.022.01-.057.01-.093-.05-.278.175.976.126.698-.026-.07-.04-.03-.032.092s.03.185.05.135c.008-.022.01-.055.008-.1l.125.685c-.025-.062-.04-.022-.03.096s.03.182.05.133c.008-.02.01-.053.008-.086l.123.673c-.024-.056-.037-.018-.03.097.008.122.03.18.048.13a.28.28 0 0 0 .008-.083 816.05 816.05 0 0 1 .302 1.66c-.01-.055.127.7.117.645 0-.001.023.128.023.127-.004-.033-.008-.068-.02-.098-.005-.014-.01-.024-.014-.03-.02.015-.023.057-.02.12.008.123.03.18.048.13.01-.025.01-.062.01-.102l.132.748c-.004-.018-.005-.036-.01-.052-.026-.072-.04-.03-.033.092s.03.182.048.13c.01-.024.01-.06.01-.097l.124.718c-.002-.008-.002-.018-.005-.025-.026-.073-.04-.03-.033.092s.03.183.047.132c.008-.023.01-.058.01-.095l.182 1.1.46 7.787.147 3.245c-.002-.016-.001-.027-.005-.047-.018-.1-.05-.144-.073-.123s-.023.094-.002.16c.05.153.094.147.082.024.015.015 1.047.33 2.672.885 1.817.62 3.65 1.295 6.236 2.3l6.22 2.373c1.626.598 2.68.95 2.743.954.016.001.137-.026.346-.078l.233-.06c2.2-.56 5.324-1.5 9.8-3.213l5.172-2.022 2.434-.928c-.01.01-.018.028-.026.035-.057.048-.047.058.03.032.063-.022.12-.127.127-.234.01-.152.005-.162-.028-.032a.56.56 0 0 1-.047.117c.012-.058.086-1.044.287-2.64.243-1.928.498-3.463.965-6.276-.01.12.003.182.03.13s.035-.156.02-.23c-.01-.05-.022-.032-.033.012l.125-.76c-.01.126.003.186.03.135s.035-.155.018-.23-.037-.03-.047.087l.217-1.36.282-2.02c-.002.106.012.16.036.114s.03-.152.01-.225c-.01-.034-.02-.04-.027-.028l.084-.7c-.001.1.014.167.038.12.02-.04.025-.115.015-.18a.33.33 0 0 0-.01-.043c-.01-.034-.02-.04-.028-.026l.075-.676c0 .115.017.172.04.123a.35.35 0 0 0 .002-.218c-.017-.05-.03-.027-.036.026l.065-.74a42.3 42.3 0 0 0 .094-1.678c.01.096.026.147.045.1s.015-.152-.012-.224c-.012-.03-.02-.037-.028-.028l.02-.683c.01.102.03.156.048.108a.37.37 0 0 0-.015-.226c-.013-.032-.022-.038-.03-.028l.01-.696c.01.108.032.163.05.114s.01-.155-.018-.227c-.014-.034-.024-.04-.03-.028l.004-.7c.012.117.034.174.052.123s.01-.157-.02-.23c-.015-.036-.026-.043-.032-.027v-.756c.016.138.04.196.053.123s.002-.197-.028-.27c-.012-.028-.02-.03-.025-.022l-.003-.695c.013.1.03.14.047.093.01-.028.012-.07.007-.115a.44.44 0 0 0-.028-.117c-.01-.028-.02-.035-.026-.03 0 .001 0-.693 0-.694.012.095.032.145.048.098a.39.39 0 0 0-.02-.234c-.012-.03-.02-.036-.027-.03l.002-.7c.012.106.032.16.05.1s.01-.16-.02-.236c-.013-.033-.022-.04-.03-.03l.007-.73c.01.12.03.178.05.126s.012-.16-.016-.237c-.014-.037-.025-.045-.03-.028l.016-.782c.01.1.027.14.043.095a.43.43 0 0 0-.014-.24c-.01-.03-.02-.036-.025-.03l.025-.72c.007.106.026.16.044.112.02-.054.016-.162-.01-.24-.01-.034-.02-.04-.027-.03l.04-.737c.004.12.023.18.043.128s.02-.162-.005-.24c-.012-.038-.022-.047-.03-.03l.017-.255.037-.482c.001.127.02.2.043.137a.41.41 0 0 0-.002-.234c-.02-.07-.037-.03-.04.072l.147-1.743c.002.113.017.17.04.122s.024-.156.002-.232c-.01-.037-.02-.044-.028-.03l.066-.72c-.001.124.017.185.04.135s.024-.156.003-.232c-.018-.062-.03-.03-.037.048l.82-7.728.835-6.876c.06-.57.08-.88.075-.883s-.612.077-1.723.1c-1.2.036-2.64-.001-4.76-.2zm4.22 30.42c.002.12.02.18.044.128a.35.35 0 0 0-.003-.22c-.025-.07-.043-.03-.04.092zm-39.276.898a.43.43 0 0 0-.024-.116c-.026-.07-.04-.03-.033.1s.03.176.047.128c.01-.024.012-.06.01-.1zm41.586-31.223c-.013-.012-.022.035-.023.127-.002.122.014.182.034.13s.02-.154.002-.224c-.005-.018-.01-.028-.013-.032zm-.082.903c-.013-.013-.024.035-.027.128-.004.124.01.184.032.132a.43.43 0 0 0 .008-.227c-.004-.018-.01-.03-.013-.033zm-.1.835c-.013-.013-.025.034-.03.128-.006.125.008.186.03.134a.43.43 0 0 0 .01-.228c-.004-.018-.008-.03-.013-.034zm-.1.838c-.013-.014-.025.034-.03.128-.006.126.008.188.032.136a.4.4 0 0 0 .01-.23.1.1 0 0 0-.013-.035zm-.1.84c-.013-.014-.025.033-.03.128-.006.127.01.187.032.136a.42.42 0 0 0 .011-.229c-.004-.02-.01-.03-.013-.035zm-.107.838c-.013-.014-.025.034-.03.128-.006.126.01.187.033.136s.028-.154.01-.23c-.005-.02-.01-.03-.014-.035zm-.1.914c-.013-.014-.025.033-.03.127-.005.126.01.187.034.136s.028-.153.01-.23c-.005-.02-.01-.03-.014-.035zm-.105.836c-.014-.014-.025.033-.03.127-.005.126.01.188.034.137s.028-.154.01-.23c-.005-.02-.01-.03-.014-.035zm-.104.836c-.014-.014-.026.033-.03.128-.005.126.01.188.034.137a.41.41 0 0 0 .009-.229.09.09 0 0 0-.014-.035zm-.102.837c-.01-.01-.02.013-.024.066a.9.9 0 0 0-.004.062c-.004.126.01.188.035.137.02-.044.026-.126.014-.197-.002-.01-.004-.022-.007-.033-.005-.02-.01-.03-.014-.035zm-.1.84c-.013-.008-.024.053-.026.163-.003.147.014.2.036.136a.59.59 0 0 0 .005-.268c-.005-.02-.01-.03-.014-.03zm-7.756.283l-.006.17c-.002.063-.126 1.1-.315 2.798L58.977 135c-.145 2.136-.203 4.105-.258 6.126-.042 3.1-.074 5.178-.3 7.4l-.26 2.88-.386 3.212c-.018.02-2.508.854-5.494 1.82l-5.212 1.62c.002 0-.256.075-.256.075-.62 3.686-.172 5.03.08 4.116.1-.33.144-.97.08-1.876-.044-.626-.143-1.38-.324-2.243l-5.445-1.84-5.415-1.782c-.004-.02-.018-.047-.044-.077-.033-.038-.06-.058-.083-.07-.006-.043-.03-.408-.047-.66a.62.62 0 0 0 .004-.228c-.007-.033-.015-.036-.022-.02l-.038-.552a.61.61 0 0 0 .011-.273c-.01-.045-.02-.028-.028.014l-.037-.574a.59.59 0 0 0 .014-.279c-.012-.05-.023-.02-.03.04.044.66-.08-1.205-.037-.546 0 .001-.01-.086-.01-.085a.36.36 0 0 0 .007-.236c-.017-.057-.028-.027-.032.04l-.08-.615c.004 0 .01-.005.015-.018a.4.4 0 0 0-.005-.221c-.02-.063-.032-.028-.034.06l-.1-.67c.007.016.014.014.022-.017a.56.56 0 0 0-.01-.255c-.023-.07-.036-.013-.03.127.001.024.004.03.006.05l-.1-.706c.007.018.015.016.023-.016a.55.55 0 0 0-.011-.253c-.005-.015-.01-.024-.013-.028-.017.01-.02.066-.017.154.002.04.006.057.01.083l-.034-.237-.076-.5-.1-.745c.007.017.016.02.024-.002.02-.046.016-.14-.007-.206s-.04-.03-.035.083l-.1-.625c.004 0 .01-.005.014-.016a.31.31 0 0 0-.01-.2c-.02-.056-.03-.026-.032.043-.004-.036-.032-.212-.033-.225 0-.006.088-.01.185-.012l2.702.063 2.8.058a1.76 1.76 0 0 0-.294-.043l.386.007.01.08c-.012-.01-.027-.02-.046-.027 0-.001.016.178.015.177.01.127.027.15.047.066l.008-.037.084.624c-.018-.04-.03-.004-.028.098.002.114.02.17.04.122.007-.016.008-.043.01-.068l.077.596c-.016-.03-.027.008-.026.102.002.1.018.165.038.12.006-.015.007-.04.01-.06a1304.57 1304.57 0 0 1 .024.191l.052.393c-.013-.027-.022-.007-.025.052a1.11 1.11 0 0 0 0 .082c.004.14.02.198.038.128a.44.44 0 0 0 .008-.1l.086.686c-.002-.01-.002-.026-.005-.036-.02-.07-.035-.013-.032.128s.02.2.037.13a.47.47 0 0 0 .01-.123c.053.402.1.674.1.736-.077-.06-.114-.036-.048.067.028.044.084.08.124.08s.026-.04-.018-.093c.095.045 1.293.4 2.745.825l1.488.437 1.433.432a308.58 308.58 0 0 1 .234.071l.035-.483c.067-1.623.016-2.565-.035-2.892-.028-.18-.06-.173-.08-.001-.034.358-.02 1.308.105 2.892l.027.496a2.47 2.47 0 0 0 .237-.055l.22-.058 1.344-.373 4.013-1.196c.024-.023.1-.726.18-1.713a40.39 40.39 0 0 0 .113-1.405c.1-1.553.15-3.334.153-3.438l.013-.327-3.245.012-2.77.001c.004 0-.222 0-.218 0l-.288-.001-6.087-.033-6.4-.082c0 .001-.048-.173-.048-.172l-.004-.025c.028-.064.023-.167-.002-.243-.02-.06-.03-.028-.032.044l-.1-.658c.007.01.014.01.02-.01.02-.053.014-.16-.01-.236s-.038-.03-.034.084l-.1-.744c.008.022.016.02.024-.018a.67.67 0 0 0-.005-.237c-.002-.016-.005-.03-.01-.044-.016-.058-.03-.037-.034.043a1.81 1.81 0 0 0 .003.096c.003.055.01.082.014.112l-.03-.208-.06-.623c.007.016.015.014.023-.02.02-.077.02-.204-.002-.283s-.037-.015-.036.14c0 .023.003.028.004.046l-.075-.78c.006.015.014.013.023-.02.02-.08.02-.2-.002-.288s-.037-.015-.036.144c0 .013.002.015.002.026l-.077-.832c.007.02.015.02.024-.004.022-.057.023-.17.002-.252s-.04-.036-.04.103c0 .01.002.014.002.024l-.072-.802c.007.02.015.023.025-.003.022-.058.023-.173.003-.257s-.038-.036-.04.105a.7.7 0 0 0 .008.119l-.04-.333 6.7-.002c-22.024.033 28.367-.042 6.342-.01h.286l.217-.001 2.97-.003 3.43.003c0 .004.032-.38.032-.375.013-.156.057-.956.124-1.986l.08-.968.252-2.7.042-.3-3.687-.02a495.1 495.1 0 0 0-3.229.008l-.217.002h-.286l-6.578.057-6.917.113-.004-.05c.006.013.013.014.022-.007a.44.44 0 0 0 .006-.235c-.02-.075-.036-.03-.04.092.001.013-.056-.717-.055-.704s.012.01.02-.01c.022-.053.025-.158.006-.234s-.034-.03-.04.08l-.055-.685c.005.005.01.003.018-.014a.43.43 0 0 0 .005-.232c-.018-.068-.033-.028-.038.072l-.045-.535-.012-.136c.005.002.01-.002.017-.017.022-.053.024-.157.005-.23-.017-.066-.032-.028-.037.067l-.06-.662c.005.002.01-.001.017-.016.022-.052.023-.156.004-.23-.017-.065-.03-.027-.037.064l-.06-.655c.005.001.01-.003.017-.017a.42.42 0 0 0 .003-.228c-.018-.064-.032-.027-.036.064l-.064-.653c.005.001.01-.003.016-.017.02-.052.022-.154.002-.228-.018-.064-.032-.027-.036.065l-.044-.386 7.145-.2 6.58-.116-6.55.14-.823.027 7.67-.154c-.001 0 .27-.003.27-.003l.22-.003a234.56 234.56 0 0 1 12.823.154zm-19.497 20.84c-.002-.017-.057-.018-.057-.018.02.006.042.01.057.018zM35 147.933c.008.022.017.024.027.001.02-.045.017-.136-.006-.202s-.04-.03-.036.083a.45.45 0 0 0 .015.118zm32.63-22c-.014-.014-.026.033-.028.128-.004.126.013.188.036.137a.41.41 0 0 0 .007-.23c-.005-.02-.01-.03-.015-.035zm-.095.837c-.014-.014-.026.033-.028.128-.003.126.013.188.037.137s.026-.154.006-.23c-.005-.02-.01-.03-.015-.035zm-.094.838c-.014-.014-.026.032-.028.127-.003.126.014.188.038.138s.026-.154.005-.23c-.005-.02-.01-.03-.015-.035zm-.092.838c-.014-.014-.026.032-.028.127-.003.127.014.188.038.138a.4.4 0 0 0 .005-.229c-.005-.02-.01-.03-.015-.035zm-.1.916c-.014-.014-.026.033-.028.128-.003.127.014.2.038.138s.026-.154.005-.23c-.005-.02-.01-.03-.015-.036zm-.1.84c-.014-.014-.025.033-.027.128-.002.127.015.2.038.138s.025-.155.004-.23c-.005-.02-.01-.03-.015-.036zm-.086.843c-.014-.014-.026.033-.027.128-.002.127.016.2.04.14s.024-.155.003-.23c-.005-.02-.01-.03-.015-.036zm-.24 2.62c-.015-.014-.025.033-.025.13 0 .128.02.2.042.14s.022-.157 0-.233c-.006-.02-.01-.03-.016-.036zm-29.238 12.367l-2.66-.03c.426-.008 1.472.004 2.66.03zm28.918-.143c-.016-.012-.025.034-.02.125.004.122.026.18.047.13s.018-.15-.008-.222c-.007-.018-.013-.028-.018-.032zm-39.54.887c-.015-.013-.022.032-.016.122.008.12.03.18.05.13s.01-.147-.015-.218c-.007-.018-.013-.03-.018-.033zm39.12 3.25c-.014-.013-.027.033-.032.126-.006.124.01.184.034.133a.38.38 0 0 0 .012-.226c-.005-.018-.01-.03-.014-.034zm-.12.828c-.014-.013-.026.033-.032.127-.007.125.007.185.033.134a.38.38 0 0 0 .013-.227c-.005-.018-.01-.03-.014-.034zm-38.278.04c-.015-.013-.022.034-.017.127.007.124.027.183.046.132s.013-.152-.012-.225c-.006-.018-.012-.03-.017-.034zm38.15.793c-.014-.014-.027.034-.034.128-.01.126.005.186.03.135a.4.4 0 0 0 .017-.229c-.004-.02-.01-.03-.013-.034zm-38.06.035c-.013-.013-.025.034-.03.128-.005.125.01.185.032.133s.028-.153.01-.227c-.004-.018-.01-.03-.013-.034zm.054.833c-.013-.013-.025.034-.03.128-.006.126.01.186.033.134a.42.42 0 0 0 .01-.228c-.004-.018-.01-.03-.013-.034zm.053.835c-.013-.013-.025.034-.03.128-.006.126.01.187.032.135s.028-.155.01-.23c-.004-.018-.01-.03-.013-.034zm37.53.902c-.013-.014-.027.035-.035.13-.01.127.002.2.03.136a.42.42 0 0 0 .019-.232c-.004-.02-.008-.03-.013-.035zm-37.48.013c-.013-.013-.025.034-.03.13-.006.126.008.187.032.135a.4.4 0 0 0 .01-.23c-.004-.02-.01-.03-.013-.034zm37.34.837c-.013-.014-.027.035-.035.13-.01.128.002.2.028.137a.43.43 0 0 0 .02-.232c-.004-.02-.008-.03-.012-.035zm-37.3.004c-.013-.013-.025.034-.03.13-.006.127.01.187.032.135s.028-.156.01-.23c-.004-.02-.01-.03-.013-.034zm37.15.85c-.013-.014-.027.035-.034.13-.01.13.002.2.028.137s.034-.158.02-.233c-.004-.02-.008-.03-.012-.034zM28.05 156c-.013-.013-.025.034-.03.13-.006.127.008.2.032.136s.03-.157.01-.23c-.004-.02-.01-.03-.013-.035zm36.962.864c-.013-.014-.026.035-.034.13-.01.13.004.2.03.138s.033-.158.017-.234c-.004-.02-.008-.03-.012-.035zm-36.914-.016c-.013-.014-.025.034-.03.13-.007.128.007.2.03.137s.03-.157.012-.232a.1.1 0 0 0-.013-.035zm36.782.878c-.013-.014-.026.036-.033.133-.01.13.005.2.03.138a.45.45 0 0 0 .016-.235c-.004-.02-.008-.03-.012-.035zm-36.737-.027c-.013-.014-.025.034-.03.13-.007.128.007.2.03.137a.44.44 0 0 0 .012-.233c-.004-.02-.01-.03-.013-.034zm36.608.972c-.013-.014-.025.035-.03.133-.008.13.006.192.03.138s.03-.16.014-.236c-.004-.02-.008-.03-.013-.035zm-36.567-.04c-.013-.014-.025.034-.03.13-.007.13.007.2.03.138a.45.45 0 0 0 .013-.234c-.004-.02-.01-.03-.013-.035zm36.45.9c-.013-.014-.024.036-.03.134-.006.13.008.193.03.14s.028-.16.01-.238c-.004-.02-.01-.03-.013-.035zm-36.4-.054c-.013-.014-.025.034-.03.13-.008.13.006.2.03.14s.03-.158.014-.234c-.004-.02-.008-.03-.012-.035zm36.303.928c-.013-.014-.024.036-.028.134-.005.132.01.194.033.14s.026-.162.01-.24a.1.1 0 0 0-.013-.035zm-36.265-.068c-.013-.014-.025.035-.03.132-.008.13.005.192.03.14a.45.45 0 0 0 .015-.235c-.004-.02-.008-.03-.013-.035zm36.17.947c-.013-.013-.024.036-.026.135-.003.133.012.195.034.14a.48.48 0 0 0 .006-.239.09.09 0 0 0-.014-.035zm-36.135-.084c-.013-.014-.026.035-.032.132-.01.13.005.192.03.14s.03-.16.015-.236c-.004-.02-.008-.03-.012-.036zm17.998 7.624c-.035-.001-.07.003-.097.014-.054.022-.012.042.094.046s.15-.014.098-.04c-.026-.013-.06-.02-.095-.02z"/><path d="M34.323 103.866l.03 2.206-.015.186-.172 1.842c0-.002-.013.13-.012.127l.005.063.176 2.2.023.32.018 1.584c.028.027 1.56-.028 3.408-.177l3.368-.278-.01-1.4.001-.23-.008-.314-.01-.747-1.982.086-1.983.1-.072-1.15c0 .001-.005-.06-.005-.058l.004-.1.053-1.363 1.993-.042 1.994-.075c0 .004.005-.442.005-.438l.005-.213-.004-.965.016-1.612-3.414.2-3.4.227zm8.207-.5l-.015 2.583-.004.214a635.81 635.81 0 0 0-.002.403l-.01 1.468.004.056.008.977 2.007-.066 2.012-.028c0-.007-.002.196-.002.2s-.002.194-.002.2l-2.008.03-2.004.07a2712.25 2712.25 0 0 1 .004.485 432.32 432.32 0 0 0 .007.311v.423l.017 1.233 3.427-.17 3.42.026-.007-1.594-.003-.304.014-.663.03-1.154c.002.026-.006-.082-.004-.055l-.043-1.275-2-.038a95.94 95.94 0 0 0-2.007.004c0 .006-.002-.272-.002-.266a658.86 658.86 0 0 0-.002-.273l2.003-.004 2.005.04-.001-.057.002-.215c0 .045-.005-1.247-.005-1.202l-.003-1.382-3.4-.044-3.414.084zm8.202.015l.016 2.58-.002.213.014.4.063 1.462a20.83 20.83 0 0 0 .005.056l-.034.972 2.017.107 2.014.126c0-.007-.015.2-.014.203l-.014.203-2.006-.145-2-.115-.014.476c0-.01.002.314.002.305a1909.24 1909.24 0 0 1-.002.413v1.196l3.398.3 3.387.37.037-1.715.003-.322.07-.8.134-1.388-.008-.063-.17-1.37-2 .053-2-.04-.016-.26-.015-.265 2 .04 1.977-.06-.006-.055c0 .007.003-.195.003-.187l.006-.992-.028-1.237-3.4-.263-3.402-.2zm69.694-80.033c-2.065-.092-3.796 1.495-3.748 3.613l.028.924.22 4.206.132 3.48.036 2.678c.01 3.548-.117 6.753-.35 10.296l-.007.103.12.796c.127.88.234 1.757.32 2.642.107 1.106.18 2.207.22 3.317.1 2.43.02 4.766-.15 7.196-.173 2.48-.424 5.02-.514 7.494-.076 2.1 1.62 3.65 3.668 3.572 7.83-.3 13.1-.3 20.98.14l.45-.038 1.147-.1c4.24-.3 8.08-.354 12.346-.2l3.275.13 4.63.155c2.028.045 3.773-1.597 3.867-3.678l.264-7.505a151.18 151.18 0 0 0-.007-7.19 50.13 50.13 0 0 0-.192-3.315l-.235-2.653-.087-.8a1352.05 1352.05 0 0 0-.011-.103c-.355-3.475-.452-6.8-.367-10.283l.097-2.68.178-3.48.172-4.2.02-.92c.035-2.104-1.67-3.674-3.703-3.685l-4.622-.067c-1.114-.02-2.205-.02-3.298-.001-4.37.073-8.265.427-12.356.8l-1.128.1-.445.03c-7.005.437-13.913-.456-20.945-.77zm34.557 22.985l.388.003a8.21 8.21 0 0 1 .761.044c.18.022.356.05.53.084l.165.033a6.96 6.96 0 0 1 .335.082 6.33 6.33 0 0 1 .37.11l.2.065a6.39 6.39 0 0 1 .795.351 6.63 6.63 0 0 1 .864.526c.047.034.093.07.14.105l.105.08c.362.28.705.6 1.032.958a10.13 10.13 0 0 1 .284.334c.01.013.032.035.04.047.04.05.085.1.128.167a12.49 12.49 0 0 1 .226.3l.12.183.014.02c.03.046.05.08.075.123.066.106.1.183.128.223.004.01.02.035.02.038.001.01-.053.06-.147.138-.293.243-.916.716-1.576 1.17a22.67 22.67 0 0 1-1.354.868l-.1.057c-.175.103-.284.16-.288.15a1.99 1.99 0 0 0-.143-.205l-.145-.196c-.37-.495-.838-.947-1.25-1.172s-.656-.3-1.098-.334a6.29 6.29 0 0 0-.349-.008l-.32.004c-.17.006-.268.02-.372.05-.052.016-.105.037-.168.063-.53.223-.956.68-1.103 1.14a2.09 2.09 0 0 0-.07.286 2.11 2.11 0 0 0-.022.171c-.054.588.17 1.2.624 1.627.236.218.498.402.928.628.215.113.47.235.783.378l.288.13.6.266.238.107a37.34 37.34 0 0 1 1.734.827l.12.06c.725.363 1.3.695 1.8 1.03.527.352.954.706 1.34 1.098 1.1 1.113 1.626 2.344 1.714 4.08a8.9 8.9 0 0 1 .01.412c0 .983-.17 1.863-.504 2.662l-.03.07-.1.2a6.71 6.71 0 0 1-.12.24 5.76 5.76 0 0 1-.99 1.371c-.47.494-1.076.918-1.778 1.253l-.154.072a7.88 7.88 0 0 1-.226.097 7.76 7.76 0 0 1-.42.16 8.49 8.49 0 0 1-.534.168l-.108.03a9.13 9.13 0 0 1-.63.147l-.083.017a10.26 10.26 0 0 1-.68.106c-.293.035-.96.05-1.556.05-.444-.001-.848-.012-1.012-.036l-.55-.073c-1.437-.183-3.005-.737-4.077-1.454a8.15 8.15 0 0 1-.376-.267 7.7 7.7 0 0 1-.355-.284c-.7-.587-1.264-1.3-1.745-2.146a5.81 5.81 0 0 1-.14-.265c-.036-.073-.058-.124-.057-.136.002-.04 3.744-2.3 3.82-2.32.006-.001.02.01.036.028a1.12 1.12 0 0 1 .065.08 3.84 3.84 0 0 1 .18.276 7.18 7.18 0 0 0 .288.44 3.3 3.3 0 0 0 .13.17c.056.074.1.147.17.216a5.53 5.53 0 0 0 .167.189 5.17 5.17 0 0 0 .157.165 4.99 4.99 0 0 0 .172.164 4.62 4.62 0 0 0 .18.155c.062.05.123.103.187.15l.054.04a4.3 4.3 0 0 0 .277.183l.106.06a5.24 5.24 0 0 0 .18.096 4.01 4.01 0 0 0 .22.102l.156.065c.06.023.122.046.184.067.13.044.266.08.403.1a4.85 4.85 0 0 0 .36.066c.04.006.07.014.1.018.033.004.067.005.1.01a6.57 6.57 0 0 0 .583.033c.064.001.128 0 .2-.002.422-.01.83-.067 1.195-.174l.1-.03.043-.015a2.63 2.63 0 0 0 .963-.581c.02-.02.044-.042.064-.064.008-.008.015-.016.023-.024.1-.1.188-.228.264-.35.03-.048.052-.094.076-.14.016-.03.033-.062.047-.094.035-.08.065-.16.1-.244a2.26 2.26 0 0 0 .092-.46c.004-.044.008-.088.01-.132a1.96 1.96 0 0 0 .001-.056 2.37 2.37 0 0 0-.082-.618c-.007-.026-.015-.05-.023-.077a2.15 2.15 0 0 0-.193-.448c-.045-.077-.087-.142-.134-.204-.36-.477-.798-.806-2.377-1.57l-1.548-.733c-1.224-.564-2.28-1.17-2.993-1.726a8.08 8.08 0 0 1-1.583-1.714 5.17 5.17 0 0 1-.375-.694 6.51 6.51 0 0 1-.401-1.111 7.24 7.24 0 0 1-.205-1.136c-.024-.247-.035-.5-.03-.73a7.15 7.15 0 0 1 .044-.706 7.87 7.87 0 0 1 .066-.442l.02-.1a7.93 7.93 0 0 1 .092-.421c.01-.043.023-.086.035-.13a8.3 8.3 0 0 1 .09-.312l.05-.162a10.73 10.73 0 0 1 .127-.356l.05-.126.04-.096c.025-.058.052-.115.078-.17a7.29 7.29 0 0 1 .168-.33l.098-.173.07-.118.04-.055a5.89 5.89 0 0 1 .222-.278c.025-.03.05-.056.075-.084.082-.093.168-.184.256-.272l.03-.032a6.27 6.27 0 0 1 .767-.64 5.44 5.44 0 0 1 .795-.453l.037-.017a6.74 6.74 0 0 1 .279-.121 6.18 6.18 0 0 1 .858-.29l.107-.028.268-.062c.143-.03.285-.057.427-.077.266-.038.7-.06 1.12-.062zm-15.572.57l2.187.002c-.001 0 .383-.015.382-.015l2.525-.103.02 2.17c-.008-.102.073.978.065.876l.157 2.743c.04.85.064 1.718.078 2.612l.005.378c.034 2.646-.04 4.8-.083 5.832l-.074 1.558L144.6 64c-.028.153-.058.302-.1.448a12.36 12.36 0 0 1-.083.359c-.2.83-.52 1.567-.945 2.215l-.012.02-.123.18a6.71 6.71 0 0 1-.436.519c-.033.036-.068.07-.102.106a6.91 6.91 0 0 1-.202.2l-.123.115a7.11 7.11 0 0 1-.202.174 6.3 6.3 0 0 1-.22.177 7.36 7.36 0 0 1-.225.168c-.05.036-.103.07-.155.106l-.08.053-.14.077-.157.082a6.5 6.5 0 0 1-.27.126l-.108.05a.25.25 0 0 1-.027.01c-.16.067-.325.127-.494.183a8.6 8.6 0 0 1-1.716.369l-.043.006c-.157.018-.317.03-.48.042l-.2.013c-.023.001-.045.004-.068.005-.128.006-.253.008-.38.01l-.248.001-.47-.01-.108-.006a10.32 10.32 0 0 1-1.943-.28c-.073-.018-.134-.035-.196-.052l-.22-.062-.118-.036a8.28 8.28 0 0 1-.349-.117 7.21 7.21 0 0 1-1.782-.935l-.044-.032-.237-.183-.086-.07c-.077-.064-.152-.13-.226-.198-.013-.012-.027-.023-.04-.035a8.24 8.24 0 0 1-.466-.47c-.072-.08-.143-.16-.2-.24a6.42 6.42 0 0 1-.841-1.289c-.095-.192-.112-.263-.072-.294.127-.098 3.85-2.204 3.9-2.206.008-.001.025.013.046.036.064.07.176.237.3.432a8.2 8.2 0 0 0 .248.397 5.12 5.12 0 0 0 .494.64 3.28 3.28 0 0 0 .512.455 2.53 2.53 0 0 0 .269.165 2.49 2.49 0 0 0 .579.218c.35.085 1.15.102 1.546.032a3.14 3.14 0 0 0 .203-.042 2.48 2.48 0 0 0 .368-.12 2.11 2.11 0 0 0 .166-.078 1.87 1.87 0 0 0 .298-.194c.046-.037.1-.075.132-.116.084-.083.162-.174.232-.274.245-.353.403-.82.486-1.425a12.94 12.94 0 0 0 .041-.649l.074-1.845a105.26 105.26 0 0 0 .038-5.268l-.016-.726-.1-2.263-.185-2.74-.075-.875-.01-2.165zm.595 122.733c-1.555-.16-3.077-.505-4.558-.984-1.608-.52-3.196-1.208-4.716-2l-.796-.425a140.4 140.4 0 0 1-.394-.214l-1.553-.84c-2.085-1.165-3.877-2.416-5.677-4.1-2.356-2.2-3.962-4.596-5.153-7.304-1.165-2.648-1.968-5.7-2.35-8.814-.2-1.62-.2-5.052-.001-6.672.586-4.797 2.176-9.695 4.962-13.282 1.018-1.3 3.462-3.4 5-4.254 1.03-.584 2.087-1.083 3.188-1.56l1.543-.666 1.2-.504a32 32 0 0 1 4.722-1.47 34.65 34.65 0 0 1 3.257-.578 23.89 23.89 0 0 1 1.9-.146c1.64-.073 3.665-.072 4.78.036a34.14 34.14 0 0 1 3.278.468c1.928.378 3.702.936 5.6 1.743.5.212.985.43 1.454.66 2 .973 3.734 2.124 5.516 3.67a28.81 28.81 0 0 1 .85.766 25.24 25.24 0 0 1 1.698 1.757c1.224 1.428 2.275 2.963 3.203 4.812l.127.256c.725 1.496 1.246 2.883 1.612 4.396.568 2.506.7 4.404.706 7.227-.003 2.76-.148 4.74-.714 7.216-.366 1.52-.886 2.927-1.6 4.444l-.1.188c-.932 1.908-1.982 3.488-3.24 5.043-.523.63-1.087 1.248-1.7 1.876l-.312.315a33.21 33.21 0 0 1-6.061 4.767c-2.2 1.34-4.6 2.45-7.056 3.195a25.39 25.39 0 0 1-3.306.767 25.48 25.48 0 0 1-4.718.233c-.2-.01-.407-.026-.582-.043zm4.915-1.745a23.26 23.26 0 0 0 3.656-.849c1.643-.525 3.234-1.23 4.896-2.128.745-.402 1.475-.834 2.184-1.3 2.388-1.554 4.582-3.45 6.392-5.587a26.42 26.42 0 0 0 1.694-2.23c1.4-2.098 2.473-4.27 3.214-6.724l.055-.187c.6-2.1.863-4.05.92-6.6.06-2.706-.1-4.535-.654-6.888a24.49 24.49 0 0 0-.261-.996c-.722-2.53-1.83-4.744-3.267-6.807a23.08 23.08 0 0 0-1.692-2.11c-1.827-2.023-4.006-3.698-6.385-4.995a27.1 27.1 0 0 0-7.086-2.616c-1.18-.256-2.4-.437-3.625-.543-1.074-.092-2.9-.1-4.353-.023-.566.027-1.088.064-1.504.113a29.76 29.76 0 0 0-3.6.644 30.2 30.2 0 0 0-4.748 1.588l-1.204.55-1.598.736c-3.805 1.77-6.374 3.818-8.34 7.044-1.826 2.996-2.96 6.83-3.348 10.674-.15 1.5-.15 4.426.002 5.915.316 3.1 1.02 5.862 2.33 8.737a20.15 20.15 0 0 0 4.667 6.508c1.4 1.307 2.97 2.457 4.726 3.498l1.607.915 1.206.68c1.532.827 3.13 1.545 4.743 2.086a21.92 21.92 0 0 0 3.528.877c.418.066.96.12 1.553.148 1.486.075 3.196.01 4.292-.153zm-4.016-2.084l-.23-.02c-1.655-.157-3.802-.638-4.843-1.036a303.22 303.22 0 0 0-.172-.066c.007.003-.2-.077-.194-.074l.218-.557c1.232-3.165 2.358-6.406 3.424-9.63l1.67-5.177 1.686-5.17c.014-.038 1.574 4.457 3.55 9.994l2.482 6.802 1.25 3.3c.023.056-.523.288-1.207.527a20.57 20.57 0 0 1-.896.29c-2.186.65-4.8.988-6.736.83zm-9.74-3.212l-.285-.163-1.223-.753-1.662-1.037c-1.1-.716-2.1-1.494-3.024-2.336-1.393-1.268-2.194-2.207-3.165-3.667-3.643-5.48-4.458-13.238-2.8-19.6.2-.768.845-2.712.983-2.948.03-.05 2.293 6.6 5.666 14.83a176.16 176.16 0 0 0 2.352 5.478 97.97 97.97 0 0 1 1.718 3.921c.506 1.26.9 2.345 1.22 3.275l1.03 2.9c.12.342.184.62.147.617s-.46-.232-.947-.507zm22.25-.54l2.22-6.228 5.555-15.456c.32-.96.606-1.97.85-2.97.53-2.182.864-4.33.877-5.86 0 .047.008-.905.008-.858-.012-.022.443.822.43.8a16.22 16.22 0 0 1 .379.751c1.493 3.222 2.222 7.295 1.948 10.928-.225 2.986-.815 5.386-1.953 7.955a25.77 25.77 0 0 1-.439.919 24.35 24.35 0 0 1-1.241 2.191c-.966 1.5-2.088 2.852-3.48 4.217a26.94 26.94 0 0 1-2.926 2.501c-.636.464-1.3.917-2.052 1.384l-.344.218c.001-.002.168-.5.17-.5zm-21.118-18.2l-1.322-3.715a90.95 90.95 0 0 0-1.259-3.499l-1.73-4.247c-.426-1.06-.505-1.346-.458-1.372.007-.004.175-.003.457.001 1.577.01-.052 0 1.525.01l.202.001h1.503c0 .013-.004-.898-.004-.884s-.005-.894-.005-.882l-.245-.003c.04 0-.3-.003-.27-.003l-.987-.012-1.723-.037-2.238-.093c-2.348-.106-3.983-.206-3.983-.243-.001-.162.982-1.387 1.845-2.234 1.25-1.226 2.68-2.222 4.36-3.113l1.656-.857 1.22-.63c1.537-.738 3.142-1.335 4.78-1.778 1.24-.336 2.514-.587 3.814-.752a16.6 16.6 0 0 1 1.219-.091c1.327-.057 3.197-.062 4.02.018 1.306.127 2.602.35 3.867.665 2.525.63 4.967 1.636 7.113 2.977.65.4 1.273.854 1.862 1.327l.397.32c.012 0-.415.018-.404.017-.523.022-1.272.27-1.864.586-.258.136-.487.284-.656.433-.93.82-1.347 1.817-1.345 3.2.003 1.52.38 2.502 1.9 4.853l.1.156c1.522 2.428 2.016 3.725 2.175 5.686.13 1.616-.102 3.584-.66 5.602-.092.333-.74 2.305-1.52 4.645-.003.01-.367 1.085-.37 1.095l-1.7 5.066-4.237-12.174-.867-2.54-3.273-9.695c-.118-.397.02-.44 1.554-.524l1.46-.083c0 .01.028-.82.027-.8.02-.578-.005-.834-.088-.897s-1.175-.023-3.432.082c-1.396.065-2.678.094-3.944.085a66.33 66.33 0 0 1-2.39-.046l-2.527-.08c-.524-.008-.795.001-.834.03-.083.064-.107.318-.084.893l.03.806.9.044c-.005 0 .6.03.604.028 1.155.053 1.496.092 1.598.198s1.794 4.824 2.716 7.637l.644 2.03c0 .036-.255.884-.644 2.168-1.253 4.24-4.123 13.206-4.18 13.262-.007.007-.274-.815-.735-2.22l-3.563-10.424zM105.532 90.87c1.042 2.887 1.247 5.712.02 8.924-1.016 2.657-2.7 3.52-7.17 5.613-2.78 1.3-5.504 1.964-7.968.54s-4.562-4.785-5.54-7.57c-1.018-2.896-.777-5.86.258-8.5.683-1.75 4.122-4.06 7.14-4.617 3.876-.714 5.22-1.356 7.765.442 2.324 1.64 4.085 1.273 5.494 5.176zm6.328 18.87c-.362.772-.877 1.367-1.75 1.757-.72.322-1.22.163-2.5-.306-.8-.3-1.467-.695-1.67-1.46s.044-1.836.398-2.575c.37-.77.998-1.304 1.722-1.62.478-.2 1.607.012 2.3.496.902.62 1.3.76 1.438 1.612.134.78.552 1.052.063 2.096zm6.786 5.82c.036.42-.038.804-.315 1.187-.23.317-.483.372-1.153.5-.416.074-.802.065-1.08-.212s-.436-.8-.467-1.204c-.032-.42.105-.807.337-1.122.153-.208.693-.393 1.114-.36.54.043.742.006 1.017.335.25.3.498.315.546.884zm-2.586-38.038a1.63 1.63 0 0 1-.309 1.162c-.225.3-.473.364-1.128.48-.407.072-.784.064-1.055-.207s-.427-.782-.457-1.178c-.03-.412.103-.8.33-1.098.15-.204.678-.385 1.1-.352.53.042.726.006.995.328.245.295.487.308.534.865z"/><use xlink:href="#B"/><use xlink:href="#B" x="-28.464" y="3.438"/><path d="M73.684 82.96a1.72 1.72 0 0 1-.325 1.223c-.237.327-.498.383-1.188.506-.43.076-.826.067-1.112-.218s-.45-.823-.48-1.24a1.73 1.73 0 0 1 .348-1.157c.158-.215.714-.405 1.148-.37.557.044.765.006 1.048.346.258.3.513.324.563.9zm4.868 22.4c.362-.772.877-1.367 1.75-1.757.72-.322 1.22-.163 2.5.306.8.3 1.467.695 1.67 1.46s-.044 1.836-.398 2.575c-.37.77-.998 1.304-1.722 1.62-.478.2-1.607-.012-2.3-.496-.902-.62-1.3-.76-1.438-1.612-.134-.78-.552-1.052-.063-2.096zm-1.982 5.442c.045.53-.047 1-.396 1.493-.3.4-.607.468-1.45.617-.523.093-1.008.082-1.356-.266s-.548-1.004-.587-1.513c-.04-.53.133-1.014.424-1.4.193-.262.87-.494 1.4-.452.68.054.933.007 1.278.422.315.378.626.396.687 1.1z"/></g><defs ><path id="B" d="M110.766 85.2c-.55.652-1.2 1.093-2.144 1.244-.78.125-1.22-.158-2.346-.945-.7-.488-1.237-1.05-1.237-1.84s.518-1.762 1.05-2.384c.555-.647 1.302-1 2.083-1.12.516-.08 1.55.428 2.102 1.076.7.833 1.05 1.067.972 1.93-.072.787.26 1.16-.482 2.04z"/></defs></svg>