<svg xmlns="http://www.w3.org/2000/svg" viewBox="0 0 103.114 103.114" height="389.722" width="389.722" xmlns:v="https://vecta.io/nano"><path d="M49.016 86.012c-1.967-.202-3.9-.636-5.808-1.237a40.5 40.5 0 0 1-6.116-2.532l-1.114-.588-.412-.226-1.87-1.066a36.12 36.12 0 0 1-6.849-5.254c-5.703-5.504-9.035-12.606-10.092-20.68-.274-2.093-.275-6.453-.001-8.545.825-6.306 3.086-12.245 6.86-16.982 1.267-1.59 4.492-4.422 6.174-5.456 1.252-.77 2.52-1.43 3.85-2.056l1.863-.85a43.34 43.34 0 0 1 1.525-.639 41.24 41.24 0 0 1 6.127-1.863c1.34-.298 2.715-.537 4.13-.72.664-.086 1.56-.15 2.537-.19 2.084-.09 4.624-.087 6.037.05a44.18 44.18 0 0 1 4.3.617c2.45.484 4.72 1.193 7.125 2.214a37.19 37.19 0 0 1 1.936.886c2.504 1.24 4.668 2.7 6.87 4.66a35.65 35.65 0 0 1 1.146 1.065 30.4 30.4 0 0 1 2.114 2.27c1.5 1.802 2.758 3.747 3.906 6.063l.246.506c.917 1.928 1.6 3.805 2.11 5.763.726 2.88 1.03 5.675 1.03 8.934-.002 3.232-.3 6.054-1.035 8.932-.502 1.97-1.194 3.866-2.11 5.83l-.2.423c-1.155 2.394-2.415 4.406-3.957 6.348-.65.812-1.35 1.6-2.117 2.418l-.476.494c-2.294 2.345-4.843 4.376-7.548 6.05-2.802 1.728-5.87 3.155-9.05 4.12-1.4.427-2.858.768-4.338 1.006a32.74 32.74 0 0 1-5.963.299c-.304-.015-.584-.035-.832-.06zm6.316-2.23a30.12 30.12 0 0 0 4.806-1.113c2.1-.67 4.114-1.564 6.203-2.698a39.29 39.29 0 0 0 2.854-1.708c3.045-2.01 5.77-4.44 8.03-7.2a33.81 33.81 0 0 0 2.115-2.879c1.697-2.607 3.04-5.423 3.98-8.48l.157-.528c.736-2.56 1.078-5.033 1.154-8.154.084-3.464-.145-5.81-.89-8.82l-.26-.98c-.92-3.262-2.32-6.224-4.13-8.887-.653-.956-1.36-1.868-2.112-2.732-2.28-2.614-4.992-4.773-8.022-6.452-2.782-1.537-5.84-2.675-9.068-3.378-1.547-.337-3.14-.575-4.765-.713-1.367-.115-3.674-.116-5.542-.034a30.97 30.97 0 0 0-2.042.147c-1.572.18-3.1.448-4.603.8a37.76 37.76 0 0 0-6.135 2.013c-.5.22-1.024.457-1.53.7a62.55 62.55 0 0 0-1.881.94c-4.34 2.262-7.577 4.96-10.2 9.054-2.508 3.9-4.153 8.68-4.718 13.686-.218 1.934-.218 5.643.001 7.577.454 4.013 1.463 7.475 3.3 11.2 1.518 3.084 3.472 5.81 6.037 8.347 1.71 1.69 3.59 3.176 5.635 4.5.626.402 1.257.79 1.888 1.16.51.3 1.02.59 1.53.866 1.954 1.052 4.022 1.966 6.126 2.654 1.472.48 2.98.86 4.513 1.1.565.09 1.3.16 2.108.197 1.91.09 4.078.008 5.47-.198zM50.095 81.1l-.22-.02c-2.216-.2-5.078-.826-6.46-1.345l-.14-.053c-.013-.005-.325-.122-.337-.127l.348-.954 4.27-12.09 2.354-6.866 2.195-6.378c.02-.05 2.13 5.707 4.718 12.798l3.29 8.944 1.488 3.984c.028.07-.63.35-1.474.645a26.42 26.42 0 0 1-1.245.401c-2.83.833-6.237 1.264-8.785 1.06zm-12.683-4.124l-.274-.16a41.43 41.43 0 0 1-1.537-.957c-.635-.413-1.273-.85-1.906-1.31-1.253-.92-2.443-1.93-3.556-3.027-1.67-1.646-2.607-2.784-3.87-4.686-4.837-7.287-6.163-16.74-3.772-25.135.276-.967 1.184-3.48 1.362-3.768.04-.063 3.128 8.473 7.078 18.988l2.755 7.224 1.926 5.013 1.536 4.194 1.258 3.48c.158.44.25.795.202.79s-.587-.297-1.202-.648zm28.886-.68l2.89-8.22 1.862-5.27 5.022-14.278a49.91 49.91 0 0 0 1.152-4.169c.616-2.668.993-5.263 1.005-7.137-.006.917.014-2.015.008-1.1-.004-.007.545 1.03.54 1.025.196.37.383.755.562 1.15 1.84 4.078 2.748 9.25 2.402 13.81-.282 3.72-1.02 6.804-2.407 9.992-.2.455-.412.91-.638 1.37-.463.94-.95 1.823-1.47 2.668-1.23 1.986-2.653 3.75-4.435 5.536a32.81 32.81 0 0 1-3.599 3.136c-.823.616-1.7 1.217-2.674 1.837-.001.001-.435.278-.437.28s.217-.627.217-.63zM38.714 52.993L35.61 44.01 33.68 38.6c-.547-1.57-.652-1.977-.597-2.013.008-.005.233-.006.595-.004l1.606.006h.322l1.548-.002c-.001 0 .218 0 .217 0 0 .015-.002-1.147-.002-1.132s-.003-1.143-.003-1.13c0 0-.217-.002-.217-.002l-.43-.004-1.118-.012-1.926-.038-2.616-.097c-2.72-.117-4.846-.25-4.846-.298 0-.187 1.263-1.788 2.296-2.863 1.536-1.598 3.23-2.905 5.15-4.075a47.1 47.1 0 0 1 1.901-1.095 38.69 38.69 0 0 1 1.536-.799 33.77 33.77 0 0 1 6.144-2.254 37.13 37.13 0 0 1 4.922-.934c.416-.05 1.017-.09 1.697-.117 1.74-.07 4.118-.075 5.172.026 1.73.166 3.44.46 5.1.872 3.277.817 6.383 2.113 9.076 3.845a24.7 24.7 0 0 1 2.264 1.646c-.004-.004.503.412.498.408a2192.78 2192.78 0 0 1-.507.022c-.63.027-1.53.32-2.26.702-.357.186-.675.392-.905.6-1.163 1.05-1.685 2.325-1.68 4.1.006 1.95.483 3.2 2.366 6.215l.21.34c1.847 3.016 2.45 4.676 2.645 7.144.163 2.07-.127 4.6-.827 7.173-.11.408-.883 2.81-1.823 5.685.003-.008-.55 1.673-.548 1.665L66.5 68.67 55.736 37.41c-.157-.51.03-.562 2.04-.67l1.898-.106c0 .01.034-1.047.034-1.037.025-.74-.008-1.068-.116-1.15s-1.507-.03-4.493.106a102.94 102.94 0 0 1-5.199.112 96.97 96.97 0 0 1-3.328-.069l-3.246-.106c-.736-.014-1.11-.002-1.164.038-.107.08-.14.407-.114 1.143l.036 1.03 1.247.062c-.005 0 .708.034.703.033 1.517.07 1.977.123 2.1.258.142.143 2.505 6.454 3.762 10.025.47 1.33.79 2.275.79 2.363 0 .044-.31 1.02-.8 2.517l-5.676 17.228c-.01.008-.335-.95-.892-2.595l-4.627-13.598z" fill="#5485cc"/></svg>